G04 #@! TF.GenerationSoftware,KiCad,Pcbnew,8.0.9-1.fc41*
G04 #@! TF.CreationDate,2025-05-25T01:26:55-03:00*
G04 #@! TF.ProjectId,PA-circuit,50412d63-6972-4637-9569-742e6b696361,rev?*
G04 #@! TF.SameCoordinates,Original*
G04 #@! TF.FileFunction,Soldermask,Top*
G04 #@! TF.FilePolarity,Negative*
%FSLAX46Y46*%
G04 Gerber Fmt 4.6, Leading zero omitted, Abs format (unit mm)*
G04 Created by KiCad (PCBNEW 8.0.9-1.fc41) date 2025-05-25 01:26:55*
%MOMM*%
%LPD*%
G01*
G04 APERTURE LIST*
G04 Aperture macros list*
%AMRoundRect*
0 Rectangle with rounded corners*
0 $1 Rounding radius*
0 $2 $3 $4 $5 $6 $7 $8 $9 X,Y pos of 4 corners*
0 Add a 4 corners polygon primitive as box body*
4,1,4,$2,$3,$4,$5,$6,$7,$8,$9,$2,$3,0*
0 Add four circle primitives for the rounded corners*
1,1,$1+$1,$2,$3*
1,1,$1+$1,$4,$5*
1,1,$1+$1,$6,$7*
1,1,$1+$1,$8,$9*
0 Add four rect primitives between the rounded corners*
20,1,$1+$1,$2,$3,$4,$5,0*
20,1,$1+$1,$4,$5,$6,$7,0*
20,1,$1+$1,$6,$7,$8,$9,0*
20,1,$1+$1,$8,$9,$2,$3,0*%
G04 Aperture macros list end*
%ADD10RoundRect,0.155000X-0.212500X-0.155000X0.212500X-0.155000X0.212500X0.155000X-0.212500X0.155000X0*%
%ADD11RoundRect,0.237500X-0.237500X0.287500X-0.237500X-0.287500X0.237500X-0.287500X0.237500X0.287500X0*%
%ADD12C,5.500000*%
%ADD13RoundRect,0.155000X-0.155000X0.212500X-0.155000X-0.212500X0.155000X-0.212500X0.155000X0.212500X0*%
%ADD14R,1.700000X1.700000*%
%ADD15O,1.700000X1.700000*%
%ADD16RoundRect,0.237500X-0.237500X0.300000X-0.237500X-0.300000X0.237500X-0.300000X0.237500X0.300000X0*%
%ADD17RoundRect,0.237500X-0.300000X-0.237500X0.300000X-0.237500X0.300000X0.237500X-0.300000X0.237500X0*%
%ADD18RoundRect,0.155000X0.212500X0.155000X-0.212500X0.155000X-0.212500X-0.155000X0.212500X-0.155000X0*%
%ADD19RoundRect,0.237500X-0.287500X-0.237500X0.287500X-0.237500X0.287500X0.237500X-0.287500X0.237500X0*%
%ADD20RoundRect,0.237500X0.300000X0.237500X-0.300000X0.237500X-0.300000X-0.237500X0.300000X-0.237500X0*%
%ADD21RoundRect,0.160000X-0.160000X0.197500X-0.160000X-0.197500X0.160000X-0.197500X0.160000X0.197500X0*%
%ADD22RoundRect,0.237500X0.237500X-0.287500X0.237500X0.287500X-0.237500X0.287500X-0.237500X-0.287500X0*%
%ADD23C,2.108200*%
%ADD24C,2.209800*%
%ADD25RoundRect,0.062500X-0.350000X-0.062500X0.350000X-0.062500X0.350000X0.062500X-0.350000X0.062500X0*%
%ADD26RoundRect,0.062500X-0.062500X-0.350000X0.062500X-0.350000X0.062500X0.350000X-0.062500X0.350000X0*%
%ADD27R,1.600000X1.600000*%
G04 APERTURE END LIST*
D10*
X92205578Y-47292071D03*
X93340578Y-47292071D03*
X90536078Y-58776958D03*
X91671078Y-58776958D03*
D11*
X87375236Y-48619901D03*
X87375236Y-50369901D03*
X94003578Y-58390958D03*
X94003578Y-60140958D03*
D12*
X108798000Y-43000000D03*
D13*
X78344578Y-54706000D03*
X78344578Y-55841000D03*
D12*
X69398000Y-74084000D03*
D14*
X84438000Y-42084000D03*
D15*
X86978000Y-42084000D03*
X89518000Y-42084000D03*
X92058000Y-42084000D03*
X94598000Y-42084000D03*
D10*
X87811078Y-64364958D03*
X88946078Y-64364958D03*
D16*
X99083578Y-58390958D03*
X99083578Y-60115958D03*
D17*
X92098078Y-45592071D03*
X93823078Y-45592071D03*
D18*
X89861078Y-50065958D03*
X88726078Y-50065958D03*
D10*
X86230379Y-53334668D03*
X87365379Y-53334668D03*
D12*
X108798000Y-74084000D03*
D19*
X78994078Y-59284958D03*
X80744078Y-59284958D03*
D20*
X81689578Y-46928500D03*
X79964578Y-46928500D03*
D21*
X83064578Y-49431000D03*
X83064578Y-50626000D03*
D22*
X92173078Y-53892071D03*
X92173078Y-52142071D03*
D23*
X107768578Y-58390958D03*
D24*
X105228578Y-60930958D03*
X105228578Y-55850958D03*
X110308578Y-60930958D03*
X110308578Y-55850958D03*
D12*
X69398000Y-43000000D03*
D14*
X89171078Y-75204225D03*
D21*
X80164578Y-50831000D03*
X80164578Y-52026000D03*
D17*
X85610578Y-46917071D03*
X87335578Y-46917071D03*
D19*
X95668578Y-58390958D03*
X97418578Y-58390958D03*
D23*
X70442066Y-59463829D03*
D24*
X72982066Y-56923829D03*
X72982066Y-62003829D03*
X67902066Y-56923829D03*
X67902066Y-62003829D03*
D25*
X85693578Y-57890958D03*
X85693578Y-58390958D03*
X85693578Y-58890958D03*
D26*
X86631078Y-59828458D03*
X87131078Y-59828458D03*
X87631078Y-59828458D03*
D25*
X88568578Y-58890958D03*
X88568578Y-58390958D03*
X88568578Y-57890958D03*
D26*
X87631078Y-56953458D03*
X87131078Y-56953458D03*
X86631078Y-56953458D03*
D27*
X87131078Y-58390958D03*
M02*
