M48
INCH,TZ
T1C0.0079
T2C0.0157
T3C0.0394
T4C0.0630
T5C0.0670
T6C0.1260
%
G90
G05
T1
X34087Y-22772
X34087Y-22989
X34087Y-23205
X34304Y-22772
X34304Y-22989
X34304Y-23205
X34520Y-22772
X34520Y-22989
X34520Y-23205
T2
X26754Y-25321
X26754Y-25912
X26754Y-26502
X26754Y-27093
X26754Y-27683
X26813Y-18628
X26813Y-19219
X26813Y-19809
X26813Y-20400
X26813Y-20991
X26813Y-21581
X27733Y-24592
X27857Y-25321
X27857Y-25912
X27857Y-26502
X27857Y-27093
X27857Y-27683
X27916Y-18628
X27916Y-19219
X27916Y-19809
X27916Y-20400
X27916Y-20991
X27916Y-21581
X27916Y-22172
X28959Y-25321
X28959Y-25912
X28959Y-26502
X28959Y-27093
X28959Y-27683
X28959Y-28274
X28959Y-28865
X28959Y-29455
X29018Y-16266
X29018Y-16857
X29018Y-17447
X29018Y-18038
X29018Y-18628
X29018Y-19219
X29018Y-19809
X29018Y-20400
X29018Y-20991
X29018Y-21581
X29569Y-22743
X30061Y-24140
X30061Y-24731
X30061Y-25321
X30061Y-25912
X30061Y-26502
X30061Y-27093
X30061Y-27683
X30061Y-28274
X30061Y-28865
X30061Y-29455
X30121Y-16266
X30121Y-16857
X30121Y-17447
X30121Y-18038
X30121Y-18628
X30121Y-19219
X30121Y-19809
X30121Y-20400
X30121Y-20991
X30121Y-21581
X30121Y-22172
X30258Y-22743
X30849Y-22743
X31164Y-24140
X31164Y-24731
X31164Y-25321
X31164Y-25912
X31164Y-26502
X31164Y-27093
X31164Y-27683
X31164Y-28274
X31164Y-28865
X31164Y-29455
X31195Y-21013
X31200Y-20064
X31541Y-22743
X31676Y-16246
X31676Y-16837
X31676Y-17428
X31988Y-21430
X32073Y-19854
X32123Y-20577
X32266Y-24140
X32266Y-24731
X32266Y-25321
X32266Y-25912
X32266Y-26502
X32266Y-27093
X32266Y-27683
X32266Y-28274
X32266Y-28865
X32266Y-29455
X32299Y-22840
X32734Y-17605
X32822Y-22867
X32891Y-18254
X32970Y-18865
X33206Y-19987
X33369Y-24140
X33369Y-24731
X33369Y-25321
X33369Y-25912
X33369Y-26502
X33369Y-27093
X33369Y-27683
X33369Y-28274
X33369Y-28865
X33369Y-29455
X33600Y-17644
X33718Y-19101
X33738Y-19790
X33777Y-20518
X33816Y-21424
X34801Y-20962
X34879Y-17487
X34879Y-20371
X34879Y-21739
X34899Y-18510
X34919Y-17979
X34919Y-19691
X34938Y-19042
X35528Y-23726
X35731Y-20676
X35750Y-18530
X35750Y-24396
X35750Y-24987
X35750Y-25577
X35750Y-26168
X35750Y-26758
X35750Y-27349
X35750Y-27939
X35750Y-28530
X35770Y-17546
X35774Y-19025
X35853Y-19780
X36129Y-22329
X36164Y-21916
X36237Y-23726
X36853Y-24396
X36853Y-24987
X36853Y-25577
X36853Y-26168
X36853Y-26758
X36853Y-27349
X36853Y-27939
X36853Y-28530
X36853Y-29120
X36853Y-29711
X36872Y-19219
X36872Y-19809
X36872Y-20400
X36872Y-20991
X36872Y-21581
X36872Y-22172
X37654Y-23726
X37955Y-24396
X37955Y-24987
X37955Y-25577
X37955Y-26168
X37955Y-26758
X37955Y-27349
X37955Y-27939
X37955Y-28530
X37955Y-29120
X37955Y-29120
X37955Y-29711
X37975Y-16266
X37975Y-16857
X37975Y-17447
X37975Y-18038
X37975Y-18628
X37975Y-19219
X37975Y-19809
X37975Y-20400
X37975Y-20991
X37975Y-21581
X37975Y-22172
X38363Y-23726
X39058Y-24396
X39058Y-24987
X39058Y-25577
X39058Y-26168
X39058Y-26758
X39058Y-27349
X39058Y-27939
X39058Y-28530
X39058Y-29120
X39058Y-29711
X39077Y-16266
X39077Y-16857
X39077Y-17447
X39077Y-18038
X39077Y-18628
X39077Y-19219
X39077Y-19809
X39077Y-20400
X39077Y-20991
X39077Y-21581
X39077Y-22172
X39702Y-23726
X40160Y-24396
X40160Y-24987
X40160Y-25577
X40160Y-26168
X40160Y-26758
X40160Y-27349
X40160Y-27939
X40160Y-28530
X40160Y-29120
X40160Y-29711
X40180Y-16266
X40180Y-16857
X40180Y-17447
X40180Y-18038
X40180Y-18628
X40180Y-19219
X40180Y-19809
X40180Y-20400
X40180Y-20991
X40180Y-21581
X40180Y-22172
X40332Y-23726
X41262Y-24987
X41262Y-25577
X41262Y-26168
X41262Y-26758
X41262Y-27349
X41262Y-27939
X41262Y-28530
X41262Y-29120
X41262Y-29711
X41282Y-16266
X41282Y-16857
X41282Y-17447
X41282Y-18038
X41282Y-18628
X41282Y-19219
X41282Y-19809
X41282Y-20400
X41282Y-20991
X42365Y-24987
X42365Y-25577
X42365Y-26168
X42365Y-26758
X42365Y-27349
X42379Y-22072
X42379Y-23962
X42384Y-18628
X42384Y-19219
X42384Y-19809
X42384Y-20400
X42384Y-20991
X43467Y-24987
X43467Y-25577
X43467Y-26168
X43467Y-26758
X43467Y-27349
X43487Y-18628
X43487Y-19219
X43487Y-19809
X43487Y-20400
X43487Y-20991
T3
X33243Y-16569
X34243Y-16569
X35107Y-29608
X35243Y-16569
X36243Y-16569
X37243Y-16569
T4
X27733Y-23411
X42429Y-22989
T5
X26733Y-22411
X26733Y-24411
X28733Y-22411
X28733Y-24411
X41429Y-21989
X41429Y-23989
X43429Y-21989
X43429Y-23989
T6
X27322Y-16929
X27322Y-29167
X42834Y-16929
X42834Y-29167
M30
