G04 #@! TF.GenerationSoftware,KiCad,Pcbnew,8.0.9-1.fc41*
G04 #@! TF.CreationDate,2025-05-25T01:26:54-03:00*
G04 #@! TF.ProjectId,PA-circuit,50412d63-6972-4637-9569-742e6b696361,rev?*
G04 #@! TF.SameCoordinates,Original*
G04 #@! TF.FileFunction,Copper,L1,Top*
G04 #@! TF.FilePolarity,Positive*
%FSLAX46Y46*%
G04 Gerber Fmt 4.6, Leading zero omitted, Abs format (unit mm)*
G04 Created by KiCad (PCBNEW 8.0.9-1.fc41) date 2025-05-25 01:26:54*
%MOMM*%
%LPD*%
G01*
G04 APERTURE LIST*
G04 Aperture macros list*
%AMRoundRect*
0 Rectangle with rounded corners*
0 $1 Rounding radius*
0 $2 $3 $4 $5 $6 $7 $8 $9 X,Y pos of 4 corners*
0 Add a 4 corners polygon primitive as box body*
4,1,4,$2,$3,$4,$5,$6,$7,$8,$9,$2,$3,0*
0 Add four circle primitives for the rounded corners*
1,1,$1+$1,$2,$3*
1,1,$1+$1,$4,$5*
1,1,$1+$1,$6,$7*
1,1,$1+$1,$8,$9*
0 Add four rect primitives between the rounded corners*
20,1,$1+$1,$2,$3,$4,$5,0*
20,1,$1+$1,$4,$5,$6,$7,0*
20,1,$1+$1,$6,$7,$8,$9,0*
20,1,$1+$1,$8,$9,$2,$3,0*%
G04 Aperture macros list end*
G04 #@! TA.AperFunction,SMDPad,CuDef*
%ADD10RoundRect,0.155000X-0.212500X-0.155000X0.212500X-0.155000X0.212500X0.155000X-0.212500X0.155000X0*%
G04 #@! TD*
G04 #@! TA.AperFunction,SMDPad,CuDef*
%ADD11RoundRect,0.237500X-0.237500X0.287500X-0.237500X-0.287500X0.237500X-0.287500X0.237500X0.287500X0*%
G04 #@! TD*
G04 #@! TA.AperFunction,ComponentPad*
%ADD12C,5.500000*%
G04 #@! TD*
G04 #@! TA.AperFunction,SMDPad,CuDef*
%ADD13RoundRect,0.155000X-0.155000X0.212500X-0.155000X-0.212500X0.155000X-0.212500X0.155000X0.212500X0*%
G04 #@! TD*
G04 #@! TA.AperFunction,ComponentPad*
%ADD14R,1.700000X1.700000*%
G04 #@! TD*
G04 #@! TA.AperFunction,ComponentPad*
%ADD15O,1.700000X1.700000*%
G04 #@! TD*
G04 #@! TA.AperFunction,SMDPad,CuDef*
%ADD16RoundRect,0.237500X-0.237500X0.300000X-0.237500X-0.300000X0.237500X-0.300000X0.237500X0.300000X0*%
G04 #@! TD*
G04 #@! TA.AperFunction,SMDPad,CuDef*
%ADD17RoundRect,0.237500X-0.300000X-0.237500X0.300000X-0.237500X0.300000X0.237500X-0.300000X0.237500X0*%
G04 #@! TD*
G04 #@! TA.AperFunction,SMDPad,CuDef*
%ADD18RoundRect,0.155000X0.212500X0.155000X-0.212500X0.155000X-0.212500X-0.155000X0.212500X-0.155000X0*%
G04 #@! TD*
G04 #@! TA.AperFunction,SMDPad,CuDef*
%ADD19RoundRect,0.237500X-0.287500X-0.237500X0.287500X-0.237500X0.287500X0.237500X-0.287500X0.237500X0*%
G04 #@! TD*
G04 #@! TA.AperFunction,SMDPad,CuDef*
%ADD20RoundRect,0.237500X0.300000X0.237500X-0.300000X0.237500X-0.300000X-0.237500X0.300000X-0.237500X0*%
G04 #@! TD*
G04 #@! TA.AperFunction,SMDPad,CuDef*
%ADD21RoundRect,0.160000X-0.160000X0.197500X-0.160000X-0.197500X0.160000X-0.197500X0.160000X0.197500X0*%
G04 #@! TD*
G04 #@! TA.AperFunction,SMDPad,CuDef*
%ADD22RoundRect,0.237500X0.237500X-0.287500X0.237500X0.287500X-0.237500X0.287500X-0.237500X-0.287500X0*%
G04 #@! TD*
G04 #@! TA.AperFunction,ComponentPad*
%ADD23C,2.108200*%
G04 #@! TD*
G04 #@! TA.AperFunction,ComponentPad*
%ADD24C,2.209800*%
G04 #@! TD*
G04 #@! TA.AperFunction,SMDPad,CuDef*
%ADD25RoundRect,0.062500X-0.350000X-0.062500X0.350000X-0.062500X0.350000X0.062500X-0.350000X0.062500X0*%
G04 #@! TD*
G04 #@! TA.AperFunction,SMDPad,CuDef*
%ADD26RoundRect,0.062500X-0.062500X-0.350000X0.062500X-0.350000X0.062500X0.350000X-0.062500X0.350000X0*%
G04 #@! TD*
G04 #@! TA.AperFunction,ComponentPad*
%ADD27C,0.500000*%
G04 #@! TD*
G04 #@! TA.AperFunction,SMDPad,CuDef*
%ADD28R,1.600000X1.600000*%
G04 #@! TD*
G04 #@! TA.AperFunction,ViaPad*
%ADD29C,0.800000*%
G04 #@! TD*
G04 APERTURE END LIST*
D10*
X92205578Y-47292071D03*
X93340578Y-47292071D03*
X90536078Y-58776958D03*
X91671078Y-58776958D03*
D11*
X87375236Y-48619901D03*
X87375236Y-50369901D03*
X94003578Y-58390958D03*
X94003578Y-60140958D03*
D12*
X108798000Y-43000000D03*
D13*
X78344578Y-54706000D03*
X78344578Y-55841000D03*
D12*
X69398000Y-74084000D03*
D14*
X84438000Y-42084000D03*
D15*
X86978000Y-42084000D03*
X89518000Y-42084000D03*
X92058000Y-42084000D03*
X94598000Y-42084000D03*
D10*
X87811078Y-64364958D03*
X88946078Y-64364958D03*
D16*
X99083578Y-58390958D03*
X99083578Y-60115958D03*
D17*
X92098078Y-45592071D03*
X93823078Y-45592071D03*
D18*
X89861078Y-50065958D03*
X88726078Y-50065958D03*
D10*
X86230379Y-53334668D03*
X87365379Y-53334668D03*
D12*
X108798000Y-74084000D03*
D19*
X78994078Y-59284958D03*
X80744078Y-59284958D03*
D20*
X81689578Y-46928500D03*
X79964578Y-46928500D03*
D21*
X83064578Y-49431000D03*
X83064578Y-50626000D03*
D22*
X92173078Y-53892071D03*
X92173078Y-52142071D03*
D23*
X107768578Y-58390958D03*
D24*
X105228578Y-60930958D03*
X105228578Y-55850958D03*
X110308578Y-60930958D03*
X110308578Y-55850958D03*
D12*
X69398000Y-43000000D03*
D14*
X89171078Y-75204225D03*
D21*
X80164578Y-50831000D03*
X80164578Y-52026000D03*
D17*
X85610578Y-46917071D03*
X87335578Y-46917071D03*
D19*
X95668578Y-58390958D03*
X97418578Y-58390958D03*
D23*
X70442066Y-59463829D03*
D24*
X72982066Y-56923829D03*
X72982066Y-62003829D03*
X67902066Y-56923829D03*
X67902066Y-62003829D03*
D25*
X85693578Y-57890958D03*
X85693578Y-58390958D03*
X85693578Y-58890958D03*
D26*
X86631078Y-59828458D03*
X87131078Y-59828458D03*
X87631078Y-59828458D03*
D25*
X88568578Y-58890958D03*
X88568578Y-58390958D03*
X88568578Y-57890958D03*
D26*
X87631078Y-56953458D03*
X87131078Y-56953458D03*
X86631078Y-56953458D03*
D27*
X86581078Y-57840958D03*
X86581078Y-58390958D03*
X86581078Y-58940958D03*
X87131078Y-57840958D03*
X87131078Y-58390958D03*
D28*
X87131078Y-58390958D03*
D27*
X87131078Y-58940958D03*
X87681078Y-57840958D03*
X87681078Y-58390958D03*
X87681078Y-58940958D03*
D29*
X99256078Y-53315958D03*
X90806078Y-70965958D03*
X88693578Y-50015958D03*
X93656078Y-51815958D03*
X90806078Y-67965958D03*
X79156078Y-64315958D03*
X102006078Y-63465958D03*
X90756078Y-52515958D03*
X70756078Y-65815958D03*
X97442066Y-60263829D03*
X99256078Y-45815958D03*
X79156078Y-71815958D03*
X96456078Y-53315958D03*
X88593578Y-51742958D03*
X96456078Y-51815958D03*
X110456078Y-48815958D03*
X96456078Y-48815958D03*
X82038209Y-58013401D03*
X83143578Y-44715958D03*
X96456078Y-42815958D03*
X93656078Y-56315958D03*
X93606078Y-61965958D03*
X73706078Y-42815958D03*
X88393578Y-53242958D03*
X107656078Y-48815958D03*
X99256078Y-56315958D03*
X70906078Y-56315958D03*
X68106078Y-48815958D03*
X102006078Y-66465958D03*
X102006078Y-70965958D03*
X104806078Y-63465958D03*
X67956078Y-68815958D03*
X93606078Y-72465958D03*
X84756078Y-73315958D03*
X107606078Y-64965958D03*
X107606078Y-63465958D03*
X107606078Y-69465958D03*
X85643578Y-48515958D03*
X83543578Y-46365958D03*
X99206078Y-61965958D03*
X93606078Y-63465958D03*
X90806078Y-47065958D03*
X73556078Y-64315958D03*
X99256078Y-47315958D03*
X73556078Y-67315958D03*
X79156078Y-70315958D03*
X73706078Y-53315958D03*
X107606078Y-66465958D03*
X84756078Y-68815958D03*
X100842066Y-60263829D03*
X99256078Y-42815958D03*
X96456078Y-50315958D03*
X81956078Y-73315958D03*
X93656078Y-50315958D03*
X104856078Y-48815958D03*
X81956078Y-65815958D03*
X104856078Y-44315958D03*
X93606078Y-75465958D03*
X96406078Y-63465958D03*
X81464578Y-50428500D03*
X102056078Y-48815958D03*
X102056078Y-51815958D03*
X73706078Y-51815958D03*
X85343578Y-44815958D03*
X81956078Y-68815958D03*
X73556078Y-73315958D03*
X70756078Y-70315958D03*
X99206078Y-63465958D03*
X76356078Y-64315958D03*
X76506078Y-44315958D03*
X102006078Y-69465958D03*
X102006078Y-75465958D03*
X78356078Y-57765958D03*
X99256078Y-51815958D03*
X90806078Y-66465958D03*
X104856078Y-41315958D03*
X88593578Y-55215958D03*
X93606078Y-73965958D03*
X96406078Y-70965958D03*
X79156078Y-68815958D03*
X76506078Y-50315958D03*
X96456078Y-41315958D03*
X102056078Y-54815958D03*
X84756078Y-70315958D03*
X104806078Y-75465958D03*
X107656078Y-50315958D03*
X76356078Y-68815958D03*
X104806078Y-69465958D03*
X96456078Y-56315958D03*
X76506078Y-48815958D03*
X70906078Y-51815958D03*
X99206078Y-75465958D03*
X75106078Y-57765958D03*
X79156078Y-67315958D03*
X68106078Y-47315958D03*
X84756078Y-64315958D03*
X68106078Y-51815958D03*
X96456078Y-47315958D03*
X107642066Y-60863829D03*
X104856078Y-51815958D03*
X76506078Y-54815958D03*
X104856078Y-47315958D03*
X90806078Y-64965958D03*
X84756078Y-62815958D03*
X99206078Y-66465958D03*
X81956078Y-74815958D03*
X96406078Y-73965958D03*
X76356078Y-67315958D03*
X67956078Y-67315958D03*
X99256078Y-48815958D03*
X99206078Y-69465958D03*
X99256078Y-54815958D03*
X107606078Y-67965958D03*
X90806078Y-69465958D03*
X96456078Y-44315958D03*
X102056078Y-50315958D03*
X88743578Y-48365958D03*
X79156078Y-65815958D03*
X96406078Y-72465958D03*
X93606078Y-66465958D03*
X79248022Y-50963551D03*
X104806078Y-64965958D03*
X102056078Y-41315958D03*
X110406078Y-64965958D03*
X104856078Y-53315958D03*
X102006078Y-73965958D03*
X104856078Y-42815958D03*
X73556078Y-74815958D03*
X80456078Y-44265958D03*
X85893578Y-54415958D03*
X99256078Y-50315958D03*
X67956078Y-64315958D03*
X79234557Y-53373716D03*
X73706078Y-45815958D03*
X110406078Y-69465958D03*
X102006078Y-67965958D03*
X76506078Y-42815958D03*
X107656078Y-47315958D03*
X73706078Y-44315958D03*
X104806078Y-72465958D03*
X70756078Y-67315958D03*
X93656078Y-48815958D03*
X73556078Y-71815958D03*
X76856078Y-57765958D03*
X104856078Y-50315958D03*
X80456078Y-42765958D03*
X102056078Y-53315958D03*
X73706078Y-54815958D03*
X99206078Y-64965958D03*
X96406078Y-67965958D03*
X79156078Y-73315958D03*
X99256078Y-44315958D03*
X110456078Y-50315958D03*
X104806078Y-66465958D03*
X81956078Y-62815958D03*
X90856078Y-44565958D03*
X110456078Y-53315958D03*
X76356078Y-65815958D03*
X90806078Y-72465958D03*
X102056078Y-47315958D03*
X93656078Y-54815958D03*
X73706078Y-48815958D03*
X76356078Y-70315958D03*
X102442066Y-60263829D03*
X85693578Y-50265958D03*
X68106078Y-54815958D03*
X73706078Y-50315958D03*
X68106078Y-53315958D03*
X76506078Y-56315958D03*
X110456078Y-47315958D03*
X90806078Y-61965958D03*
X76356078Y-71815958D03*
X84756078Y-61315958D03*
X104856078Y-45815958D03*
X96456078Y-54815958D03*
X84756078Y-65815958D03*
X93606078Y-67965958D03*
X93606078Y-69465958D03*
X93606078Y-70965958D03*
X107656078Y-53315958D03*
X90242066Y-60263829D03*
X96456078Y-45815958D03*
X99256078Y-41315958D03*
X79156078Y-61315958D03*
X70906078Y-48815958D03*
X83743578Y-47915958D03*
X76356078Y-73315958D03*
X104806078Y-67965958D03*
X104806078Y-70965958D03*
X73706078Y-47315958D03*
X81956078Y-64315958D03*
X96406078Y-69465958D03*
X80456078Y-41265958D03*
X70906078Y-50315958D03*
X96406078Y-61965958D03*
X81956078Y-70315958D03*
X70906078Y-54815958D03*
X102006078Y-72465958D03*
X88593578Y-44415958D03*
X90806078Y-63465958D03*
X83368316Y-58081336D03*
X92042066Y-60263829D03*
X79156078Y-62815958D03*
X73706078Y-41315958D03*
X110406078Y-66465958D03*
X102006078Y-64965958D03*
X70906078Y-47315958D03*
X102056078Y-45815958D03*
X95642066Y-60263829D03*
X80114851Y-57765958D03*
X96406078Y-64965958D03*
X81956078Y-61315958D03*
X110406078Y-67965958D03*
X84756078Y-71815958D03*
X70756078Y-64315958D03*
X70756078Y-68815958D03*
X99206078Y-67965958D03*
X84756078Y-67315958D03*
X76356078Y-74815958D03*
X67956078Y-70315958D03*
X73556078Y-65815958D03*
X110406078Y-63465958D03*
X76506078Y-47315958D03*
X76506078Y-51815958D03*
X88693578Y-45665958D03*
X84343578Y-50765958D03*
X107656078Y-51815958D03*
X67956078Y-65815958D03*
X102006078Y-61965958D03*
X99206078Y-73965958D03*
X81250422Y-54431477D03*
X102056078Y-42815958D03*
X81593578Y-52265958D03*
X96406078Y-66465958D03*
X81956078Y-71815958D03*
X102056078Y-56315958D03*
X76356078Y-62815958D03*
X93656078Y-53315958D03*
X90864942Y-48322468D03*
X88643578Y-47015958D03*
X99206078Y-72465958D03*
X85793578Y-52115958D03*
X70906078Y-53315958D03*
X96406078Y-73965958D03*
X107642066Y-56063829D03*
X76356078Y-61315958D03*
X84756078Y-74815958D03*
X73556078Y-68815958D03*
X81956078Y-67315958D03*
X104806078Y-73965958D03*
X91768578Y-56715958D03*
X76506078Y-53315958D03*
X93606078Y-64965958D03*
X91067881Y-50241172D03*
X110456078Y-51815958D03*
X79156078Y-74815958D03*
X91856078Y-55665958D03*
X99206078Y-70965958D03*
X76506078Y-45815958D03*
X70442066Y-62463829D03*
X68106078Y-50315958D03*
X96406078Y-75465958D03*
X76506078Y-41315958D03*
X73556078Y-70315958D03*
X102056078Y-44315958D03*
G04 #@! TA.AperFunction,Conductor*
G36*
X96227769Y-57484865D02*
G01*
X96263733Y-57534365D01*
X96268578Y-57564958D01*
X96268578Y-59216958D01*
X96249671Y-59275149D01*
X96200171Y-59311113D01*
X96169578Y-59315958D01*
X91367578Y-59315958D01*
X91309387Y-59297051D01*
X91273423Y-59247551D01*
X91268578Y-59216958D01*
X91268578Y-57564958D01*
X91287485Y-57506767D01*
X91336985Y-57470803D01*
X91367578Y-57465958D01*
X96169578Y-57465958D01*
X96227769Y-57484865D01*
G37*
G04 #@! TD.AperFunction*
G04 #@! TA.AperFunction,Conductor*
G36*
X85124139Y-41130402D02*
G01*
X85190934Y-41143688D01*
X85226623Y-41158471D01*
X85274981Y-41190783D01*
X85302294Y-41218096D01*
X85334606Y-41266454D01*
X85349389Y-41302141D01*
X85362676Y-41368936D01*
X85364578Y-41388251D01*
X85364578Y-42668748D01*
X85362676Y-42688063D01*
X85349389Y-42754858D01*
X85334606Y-42790545D01*
X85302294Y-42838903D01*
X85274981Y-42866216D01*
X85226623Y-42898528D01*
X85190936Y-42913311D01*
X85140575Y-42923328D01*
X85124139Y-42926598D01*
X85104826Y-42928500D01*
X82264578Y-42928500D01*
X82264578Y-43178497D01*
X82264578Y-43526589D01*
X82264577Y-43526958D01*
X82264572Y-43528299D01*
X82264569Y-43528807D01*
X82264561Y-43529634D01*
X82264557Y-43530102D01*
X82227078Y-46453500D01*
X82227093Y-46455881D01*
X82227094Y-46455937D01*
X82242813Y-48809344D01*
X82244578Y-49073500D01*
X83124826Y-49073500D01*
X83144139Y-49075402D01*
X83210934Y-49088688D01*
X83246623Y-49103471D01*
X83294981Y-49135783D01*
X83322294Y-49163096D01*
X83354606Y-49211454D01*
X83369389Y-49247141D01*
X83382676Y-49313936D01*
X83384578Y-49333251D01*
X83384578Y-49527392D01*
X83382663Y-49546771D01*
X83369288Y-49613776D01*
X83354409Y-49649561D01*
X83321898Y-49698009D01*
X83294421Y-49725342D01*
X83245798Y-49757599D01*
X83209935Y-49772288D01*
X83169644Y-49780109D01*
X83142860Y-49785308D01*
X83123480Y-49787120D01*
X82175520Y-49782114D01*
X80939784Y-49775587D01*
X80795898Y-49774827D01*
X80795896Y-49774827D01*
X80544578Y-49773500D01*
X80544578Y-50024824D01*
X80544578Y-50919183D01*
X80542727Y-50938237D01*
X80529794Y-51004178D01*
X80515399Y-51039463D01*
X80483893Y-51087444D01*
X80457238Y-51114676D01*
X80409948Y-51147199D01*
X80374979Y-51162347D01*
X80309326Y-51176690D01*
X80290317Y-51178948D01*
X80109818Y-51182816D01*
X80090206Y-51181282D01*
X80022284Y-51169090D01*
X79985881Y-51154692D01*
X79936455Y-51122616D01*
X79908478Y-51095232D01*
X79875349Y-51046503D01*
X79860176Y-51010419D01*
X79855657Y-50988015D01*
X79853704Y-50968450D01*
X79853704Y-50963552D01*
X79845425Y-50900664D01*
X79844578Y-50887742D01*
X79844578Y-50023501D01*
X79844578Y-50023500D01*
X79844578Y-49773500D01*
X79594580Y-49773500D01*
X78990372Y-49773500D01*
X78990369Y-49773500D01*
X78744578Y-49773500D01*
X78740405Y-50019250D01*
X78740405Y-50019251D01*
X78740405Y-50019252D01*
X78730088Y-50626724D01*
X78722566Y-50662928D01*
X78662979Y-50806783D01*
X78662977Y-50806792D01*
X78642340Y-50963550D01*
X78642340Y-50963551D01*
X78662977Y-51120309D01*
X78662979Y-51120318D01*
X78711522Y-51237511D01*
X78719044Y-51277077D01*
X78687987Y-53106023D01*
X78680465Y-53142227D01*
X78649514Y-53216948D01*
X78649512Y-53216957D01*
X78628875Y-53373715D01*
X78628875Y-53373716D01*
X78649512Y-53530474D01*
X78649513Y-53530479D01*
X78671677Y-53583988D01*
X78679198Y-53623553D01*
X78671284Y-54089668D01*
X78671284Y-54089670D01*
X78671284Y-54089672D01*
X78654578Y-55073494D01*
X78654406Y-55073495D01*
X78653150Y-55073499D01*
X78652835Y-55073500D01*
X78105298Y-55073500D01*
X78085939Y-55071589D01*
X78018992Y-55058240D01*
X77983236Y-55043389D01*
X77934809Y-55010932D01*
X77907484Y-54983503D01*
X77875211Y-54934956D01*
X77860496Y-54899144D01*
X77847398Y-54832139D01*
X77845561Y-54812790D01*
X77859259Y-51183028D01*
X77864576Y-49774017D01*
X77864576Y-49773955D01*
X77864578Y-49773500D01*
X77864578Y-49088251D01*
X77866480Y-49068938D01*
X77879766Y-49002143D01*
X77894549Y-48966454D01*
X77926861Y-48918096D01*
X77954174Y-48890783D01*
X77957726Y-48888409D01*
X78002533Y-48858470D01*
X78038219Y-48843688D01*
X78073289Y-48836712D01*
X78105017Y-48830402D01*
X78124330Y-48828500D01*
X80913257Y-48828500D01*
X80913259Y-48828500D01*
X81164578Y-48828500D01*
X81154047Y-46827852D01*
X81152083Y-46454511D01*
X81152082Y-46454243D01*
X81152080Y-46453459D01*
X81152081Y-46452489D01*
X81163846Y-42287520D01*
X81165796Y-42268253D01*
X81179224Y-42201603D01*
X81194051Y-42166021D01*
X81226400Y-42117792D01*
X81253697Y-42090573D01*
X81302013Y-42058363D01*
X81337637Y-42043636D01*
X81404332Y-42030394D01*
X81423604Y-42028500D01*
X83214577Y-42028500D01*
X83214578Y-42028500D01*
X83464578Y-42028500D01*
X83464578Y-41388251D01*
X83466480Y-41368938D01*
X83479766Y-41302143D01*
X83494549Y-41266454D01*
X83526861Y-41218096D01*
X83554174Y-41190783D01*
X83557726Y-41188409D01*
X83602533Y-41158470D01*
X83638219Y-41143688D01*
X83673289Y-41136712D01*
X83705017Y-41130402D01*
X83724330Y-41128500D01*
X85104826Y-41128500D01*
X85124139Y-41130402D01*
G37*
G04 #@! TD.AperFunction*
G04 #@! TA.AperFunction,Conductor*
G36*
X83203252Y-58666173D02*
G01*
X83203367Y-58665302D01*
X83211553Y-58666379D01*
X83211554Y-58666380D01*
X83368316Y-58687018D01*
X83525078Y-58666380D01*
X83525078Y-58666379D01*
X83533265Y-58665302D01*
X83533379Y-58666173D01*
X83551185Y-58663829D01*
X85146813Y-58663829D01*
X85214934Y-58683831D01*
X85216798Y-58685052D01*
X85240961Y-58701198D01*
X85317677Y-58716458D01*
X85916066Y-58716457D01*
X85984187Y-58736459D01*
X86030680Y-58790115D01*
X86042066Y-58842457D01*
X86042066Y-60387829D01*
X86022064Y-60455950D01*
X85968408Y-60502443D01*
X85916066Y-60513829D01*
X80168066Y-60513829D01*
X80099945Y-60493827D01*
X80053452Y-60440171D01*
X80042066Y-60387829D01*
X80042066Y-60310096D01*
X80043348Y-60292165D01*
X80047566Y-60262829D01*
X80047566Y-58789829D01*
X80067568Y-58721708D01*
X80121224Y-58675215D01*
X80173566Y-58663829D01*
X83185447Y-58663829D01*
X83203252Y-58666173D01*
G37*
G04 #@! TD.AperFunction*
G04 #@! TA.AperFunction,Conductor*
G36*
X90225641Y-49783799D02*
G01*
X90226263Y-49784931D01*
X90229201Y-49810581D01*
X90254624Y-52038520D01*
X90235400Y-52106865D01*
X90182279Y-52153967D01*
X90128632Y-52165958D01*
X89556078Y-52165958D01*
X89556078Y-56641695D01*
X89536076Y-56709816D01*
X89482420Y-56756309D01*
X89431828Y-56767683D01*
X87756078Y-56790958D01*
X87721790Y-56825726D01*
X87659715Y-56860183D01*
X87588866Y-56855610D01*
X87531737Y-56813459D01*
X87506464Y-56747112D01*
X87506078Y-56737251D01*
X87506078Y-56241958D01*
X87526080Y-56173837D01*
X87579736Y-56127344D01*
X87632078Y-56115958D01*
X89156078Y-56115958D01*
X89156078Y-55452207D01*
X89165669Y-55403990D01*
X89178622Y-55372720D01*
X89199260Y-55215958D01*
X89178622Y-55059196D01*
X89165669Y-55027924D01*
X89156078Y-54979707D01*
X89156078Y-51979207D01*
X89165669Y-51930990D01*
X89178622Y-51899720D01*
X89188392Y-51825511D01*
X89217115Y-51760584D01*
X89276380Y-51721493D01*
X89313314Y-51715958D01*
X89506077Y-51715958D01*
X89506078Y-51715958D01*
X89493583Y-50376494D01*
X89493578Y-50375319D01*
X89493578Y-49755958D01*
X90225503Y-49755958D01*
X90225641Y-49783799D01*
G37*
G04 #@! TD.AperFunction*
G04 #@! TA.AperFunction,Conductor*
G36*
X80245399Y-51670387D02*
G01*
X80311955Y-51683574D01*
X80347525Y-51698245D01*
X80395782Y-51730332D01*
X80423074Y-51757461D01*
X80455448Y-51805522D01*
X80470333Y-51841005D01*
X80483921Y-51907481D01*
X80485924Y-51926706D01*
X80487709Y-52223669D01*
X80491878Y-52917459D01*
X80491879Y-52917465D01*
X80493373Y-53165958D01*
X83233621Y-53165958D01*
X83252934Y-53167860D01*
X83319729Y-53181146D01*
X83355418Y-53195929D01*
X83403776Y-53228241D01*
X83431089Y-53255554D01*
X83463401Y-53303912D01*
X83478184Y-53339599D01*
X83491471Y-53406394D01*
X83493373Y-53425709D01*
X83493373Y-56290958D01*
X85846326Y-56290958D01*
X85865639Y-56292860D01*
X85932434Y-56306146D01*
X85968123Y-56320929D01*
X86016481Y-56353241D01*
X86043794Y-56380554D01*
X86076106Y-56428912D01*
X86090889Y-56464599D01*
X86104176Y-56531394D01*
X86106078Y-56550709D01*
X86106078Y-57756206D01*
X86104176Y-57775521D01*
X86090889Y-57842316D01*
X86076106Y-57878003D01*
X86043794Y-57926361D01*
X86016481Y-57953674D01*
X85968123Y-57985986D01*
X85932436Y-58000769D01*
X85882075Y-58010786D01*
X85865639Y-58014056D01*
X85846326Y-58015958D01*
X85540830Y-58015958D01*
X85521516Y-58014056D01*
X85499145Y-58009606D01*
X85454719Y-58000769D01*
X85419032Y-57985986D01*
X85370674Y-57953674D01*
X85343361Y-57926361D01*
X85311049Y-57878003D01*
X85296266Y-57842314D01*
X85282980Y-57775519D01*
X85281078Y-57756206D01*
X85281078Y-57015959D01*
X85281078Y-57015958D01*
X85281078Y-56765958D01*
X85031080Y-56765958D01*
X82864706Y-56765958D01*
X82845446Y-56764066D01*
X82816414Y-56758307D01*
X82778828Y-56750853D01*
X82743223Y-56736151D01*
X82694940Y-56704004D01*
X82667642Y-56676825D01*
X82635283Y-56628682D01*
X82620426Y-56593142D01*
X82606921Y-56526580D01*
X82604945Y-56507329D01*
X82604673Y-56445287D01*
X82594463Y-54114863D01*
X82593373Y-53865958D01*
X82344470Y-53865958D01*
X81474013Y-53865958D01*
X81436128Y-53858422D01*
X81421951Y-53852549D01*
X81407185Y-53846433D01*
X81407180Y-53846432D01*
X81250423Y-53825795D01*
X81250421Y-53825795D01*
X81093663Y-53846432D01*
X81093658Y-53846433D01*
X81074103Y-53854533D01*
X81064715Y-53858422D01*
X81026831Y-53865958D01*
X80103242Y-53865958D01*
X80083923Y-53864055D01*
X80017108Y-53850760D01*
X79981413Y-53835970D01*
X79933046Y-53803640D01*
X79905731Y-53776313D01*
X79873422Y-53727930D01*
X79858648Y-53692229D01*
X79845384Y-53625405D01*
X79843491Y-53606088D01*
X79843573Y-53425709D01*
X79844254Y-51928128D01*
X79846163Y-51908831D01*
X79859474Y-51842052D01*
X79874260Y-51806388D01*
X79906584Y-51758043D01*
X79933890Y-51730750D01*
X79982246Y-51698451D01*
X80017920Y-51683680D01*
X80084699Y-51670400D01*
X80104007Y-51668500D01*
X80226159Y-51668500D01*
X80245399Y-51670387D01*
G37*
G04 #@! TD.AperFunction*
G04 #@! TA.AperFunction,Conductor*
G36*
X92624083Y-53353907D02*
G01*
X92660047Y-53403407D01*
X92664888Y-53433104D01*
X92673096Y-54340104D01*
X92654716Y-54398464D01*
X92605543Y-54434874D01*
X92574100Y-54440000D01*
X91013000Y-54440000D01*
X91003202Y-59205618D01*
X90984175Y-59263769D01*
X90934601Y-59299631D01*
X90904618Y-59304413D01*
X88269908Y-59315479D01*
X88211638Y-59296816D01*
X88211441Y-59296674D01*
X88201631Y-59289547D01*
X88201623Y-59289542D01*
X88201616Y-59289537D01*
X88200079Y-59288510D01*
X88162198Y-59240461D01*
X88156078Y-59206193D01*
X88156078Y-57564958D01*
X88174985Y-57506767D01*
X88224485Y-57470803D01*
X88255078Y-57465958D01*
X90240999Y-57465958D01*
X90241000Y-57465958D01*
X90241000Y-53434000D01*
X90259907Y-53375809D01*
X90309407Y-53339845D01*
X90340000Y-53335000D01*
X92565892Y-53335000D01*
X92624083Y-53353907D01*
G37*
G04 #@! TD.AperFunction*
G04 #@! TA.AperFunction,Conductor*
G36*
X90354001Y-40917851D02*
G01*
X90420656Y-40931080D01*
X90456273Y-40945796D01*
X90456473Y-40945929D01*
X90504571Y-40977975D01*
X90531873Y-41005180D01*
X90564222Y-41053363D01*
X90579066Y-41088932D01*
X90592530Y-41155544D01*
X90594490Y-41174802D01*
X90594494Y-41175709D01*
X90601288Y-43101952D01*
X90599446Y-43121316D01*
X90589828Y-43170459D01*
X90575107Y-43206265D01*
X90552899Y-43239660D01*
X90525576Y-43267080D01*
X90492256Y-43289409D01*
X90456499Y-43304257D01*
X90397819Y-43315955D01*
X90397820Y-43315956D01*
X90397810Y-43315958D01*
X90193578Y-43315958D01*
X90194590Y-43520179D01*
X90194590Y-43520187D01*
X90211706Y-46973052D01*
X90210860Y-46986463D01*
X90200396Y-47065955D01*
X90200396Y-47065960D01*
X90211812Y-47152682D01*
X90212658Y-47165112D01*
X90225495Y-49754421D01*
X90225496Y-49754426D01*
X90225504Y-49755958D01*
X89493578Y-49755958D01*
X89493578Y-43592958D01*
X89493578Y-43342958D01*
X89243580Y-43342958D01*
X88703330Y-43342958D01*
X88684016Y-43341056D01*
X88661645Y-43336606D01*
X88617219Y-43327769D01*
X88581532Y-43312986D01*
X88533174Y-43280674D01*
X88505861Y-43253361D01*
X88473549Y-43205003D01*
X88458766Y-43169314D01*
X88445480Y-43102519D01*
X88443578Y-43083206D01*
X88443578Y-41175709D01*
X88445480Y-41156396D01*
X88458766Y-41089601D01*
X88473549Y-41053912D01*
X88505861Y-41005554D01*
X88533174Y-40978241D01*
X88536726Y-40975867D01*
X88581533Y-40945928D01*
X88617219Y-40931146D01*
X88652289Y-40924170D01*
X88684017Y-40917860D01*
X88703330Y-40915958D01*
X90334731Y-40915958D01*
X90354001Y-40917851D01*
G37*
G04 #@! TD.AperFunction*
G04 #@! TA.AperFunction,Conductor*
G36*
X87885699Y-40938960D02*
G01*
X87932192Y-40992616D01*
X87943578Y-41044958D01*
X87943578Y-49039958D01*
X87923576Y-49108079D01*
X87869920Y-49154572D01*
X87817578Y-49165958D01*
X86870209Y-49165958D01*
X86802088Y-49145956D01*
X86755595Y-49092300D01*
X86744211Y-49039328D01*
X86773078Y-43265958D01*
X86219171Y-43265958D01*
X86151050Y-43245956D01*
X86104557Y-43192300D01*
X86093172Y-43140365D01*
X86086408Y-41045365D01*
X86106190Y-40977180D01*
X86159695Y-40930514D01*
X86212407Y-40918958D01*
X87817578Y-40918958D01*
X87885699Y-40938960D01*
G37*
G04 #@! TD.AperFunction*
G04 #@! TA.AperFunction,Conductor*
G36*
X87903469Y-59392677D02*
G01*
X87921136Y-59395474D01*
X87965592Y-59402516D01*
X87995044Y-59412084D01*
X88080844Y-59455802D01*
X88105902Y-59474007D01*
X88173992Y-59542097D01*
X88192198Y-59567156D01*
X88235913Y-59652951D01*
X88245484Y-59682409D01*
X88261781Y-59785303D01*
X88263000Y-59800790D01*
X88263000Y-73358000D01*
X89624437Y-73358000D01*
X89635520Y-73358621D01*
X89774686Y-73374301D01*
X89796294Y-73379234D01*
X89922122Y-73423264D01*
X89923188Y-73423637D01*
X89943161Y-73433255D01*
X90056996Y-73504782D01*
X90074329Y-73518604D01*
X90169395Y-73613670D01*
X90183217Y-73631003D01*
X90254744Y-73744838D01*
X90264362Y-73764811D01*
X90308764Y-73891702D01*
X90313698Y-73913315D01*
X90329378Y-74052478D01*
X90330000Y-74063563D01*
X90330000Y-75489436D01*
X90329378Y-75500521D01*
X90313698Y-75639684D01*
X90308764Y-75661297D01*
X90264362Y-75788188D01*
X90254744Y-75808161D01*
X90183217Y-75921996D01*
X90169395Y-75939329D01*
X90074329Y-76034395D01*
X90056996Y-76048217D01*
X89943161Y-76119744D01*
X89923188Y-76129362D01*
X89796297Y-76173764D01*
X89774684Y-76178697D01*
X89635522Y-76194377D01*
X89624437Y-76195000D01*
X88152563Y-76195000D01*
X88141480Y-76194378D01*
X88099885Y-76189691D01*
X88002315Y-76178698D01*
X87980702Y-76173764D01*
X87853811Y-76129362D01*
X87833838Y-76119744D01*
X87720003Y-76048217D01*
X87702670Y-76034395D01*
X87607604Y-75939329D01*
X87593782Y-75921996D01*
X87522255Y-75808161D01*
X87512637Y-75788188D01*
X87468235Y-75661297D01*
X87463301Y-75639686D01*
X87447622Y-75500520D01*
X87447000Y-75489436D01*
X87447000Y-60262262D01*
X87448902Y-60242947D01*
X87456578Y-60204359D01*
X87456577Y-59740316D01*
X87457796Y-59724835D01*
X87464516Y-59682405D01*
X87474084Y-59652956D01*
X87517804Y-59567151D01*
X87536004Y-59542100D01*
X87604100Y-59474004D01*
X87629151Y-59455804D01*
X87714956Y-59412084D01*
X87744407Y-59402516D01*
X87781985Y-59396564D01*
X87806532Y-59392677D01*
X87822017Y-59391458D01*
X87887983Y-59391458D01*
X87903469Y-59392677D01*
G37*
G04 #@! TD.AperFunction*
G04 #@! TA.AperFunction,Conductor*
G36*
X108710699Y-57485960D02*
G01*
X108757192Y-57539616D01*
X108768578Y-57591958D01*
X108768578Y-59189958D01*
X108748576Y-59258079D01*
X108694920Y-59304572D01*
X108642578Y-59315958D01*
X96894578Y-59315958D01*
X96826457Y-59295956D01*
X96779964Y-59242300D01*
X96768578Y-59189958D01*
X96768578Y-57591958D01*
X96788580Y-57523837D01*
X96842236Y-57477344D01*
X96894578Y-57465958D01*
X108642578Y-57465958D01*
X108710699Y-57485960D01*
G37*
G04 #@! TD.AperFunction*
G04 #@! TA.AperFunction,Conductor*
G36*
X92604472Y-40878802D02*
G01*
X92650965Y-40932458D01*
X92662351Y-40984949D01*
X92648654Y-52573164D01*
X92628571Y-52641261D01*
X92574861Y-52687690D01*
X92517762Y-52698920D01*
X91819289Y-52671780D01*
X91751996Y-52649148D01*
X91707622Y-52593728D01*
X91698181Y-52545770D01*
X91706078Y-43315958D01*
X91256000Y-43315958D01*
X91187879Y-43295956D01*
X91141386Y-43242300D01*
X91130000Y-43189958D01*
X91130000Y-40984800D01*
X91150002Y-40916679D01*
X91203658Y-40870186D01*
X91256000Y-40858800D01*
X92536351Y-40858800D01*
X92604472Y-40878802D01*
G37*
G04 #@! TD.AperFunction*
G04 #@! TA.AperFunction,Conductor*
G36*
X79739086Y-54360738D02*
G01*
X79758101Y-54362980D01*
X79823806Y-54377280D01*
X79858802Y-54392411D01*
X79906144Y-54424929D01*
X79932826Y-54452164D01*
X79956780Y-54488617D01*
X79964366Y-54500162D01*
X79978776Y-54535462D01*
X79991725Y-54601441D01*
X79993578Y-54620507D01*
X79993578Y-55015958D01*
X81082894Y-55015958D01*
X81095816Y-55016805D01*
X81250421Y-55037159D01*
X81250422Y-55037159D01*
X81250423Y-55037159D01*
X81405028Y-55016805D01*
X81417950Y-55015958D01*
X81835053Y-55015958D01*
X81854308Y-55017849D01*
X81878945Y-55022734D01*
X81920912Y-55031055D01*
X81956508Y-55045750D01*
X82004780Y-55077879D01*
X82032078Y-55105046D01*
X82064442Y-55153170D01*
X82079307Y-55188695D01*
X82092833Y-55255233D01*
X82094815Y-55274476D01*
X82096022Y-55526361D01*
X82102275Y-56832005D01*
X82102276Y-56832008D01*
X82103468Y-57080811D01*
X84777457Y-57080811D01*
X84796531Y-57082666D01*
X84862539Y-57095626D01*
X84897853Y-57110050D01*
X84945865Y-57141618D01*
X84973105Y-57168325D01*
X84987190Y-57188852D01*
X85005614Y-57215701D01*
X85020732Y-57250724D01*
X85034994Y-57316466D01*
X85037224Y-57335485D01*
X85053235Y-58145977D01*
X85158317Y-58145977D01*
X85240961Y-58201198D01*
X85317677Y-58216458D01*
X85479849Y-58216457D01*
X85494377Y-58217529D01*
X85500394Y-58218421D01*
X85501376Y-58218567D01*
X85517917Y-58220195D01*
X85520669Y-58220467D01*
X85520670Y-58220467D01*
X85520690Y-58220469D01*
X85540830Y-58221458D01*
X85540847Y-58221458D01*
X85846308Y-58221458D01*
X85846326Y-58221458D01*
X85866467Y-58220469D01*
X85885780Y-58218567D01*
X85890397Y-58217881D01*
X85892778Y-58217529D01*
X85907305Y-58216457D01*
X86004663Y-58216457D01*
X86062854Y-58235364D01*
X86098818Y-58284864D01*
X86100777Y-58291728D01*
X86104106Y-58305212D01*
X86103093Y-58356450D01*
X86090866Y-58398720D01*
X86064935Y-58442039D01*
X86033156Y-58473074D01*
X85989230Y-58497973D01*
X85950794Y-58508109D01*
X85918497Y-58511130D01*
X85916075Y-58510957D01*
X85916066Y-58510957D01*
X85347668Y-58510957D01*
X85328321Y-58509048D01*
X85327498Y-58508884D01*
X85305329Y-58501667D01*
X85272836Y-58486657D01*
X85272831Y-58486655D01*
X85272830Y-58486655D01*
X85204709Y-58466653D01*
X85204706Y-58466652D01*
X85146817Y-58458329D01*
X85146813Y-58458329D01*
X84421858Y-58458329D01*
X84363667Y-58439422D01*
X84338964Y-58413454D01*
X84314081Y-58375343D01*
X84299606Y-58339091D01*
X84287185Y-58271398D01*
X84285573Y-58251854D01*
X84295291Y-57681064D01*
X84295290Y-57681062D01*
X84299619Y-57426809D01*
X84045327Y-57426809D01*
X84045325Y-57426809D01*
X82189701Y-57426809D01*
X82176779Y-57425962D01*
X82038210Y-57407719D01*
X82038208Y-57407719D01*
X81919168Y-57423390D01*
X81887058Y-57422360D01*
X81833681Y-57411814D01*
X81798184Y-57397216D01*
X81750007Y-57365291D01*
X81722731Y-57338293D01*
X81720835Y-57335495D01*
X81690314Y-57290444D01*
X81675356Y-57255102D01*
X81661558Y-57188847D01*
X81659485Y-57169689D01*
X81652848Y-56521383D01*
X81646112Y-55863398D01*
X81646111Y-55863395D01*
X81643578Y-55615958D01*
X81396125Y-55615958D01*
X81396121Y-55615958D01*
X79553330Y-55615958D01*
X79534016Y-55614056D01*
X79511645Y-55609606D01*
X79467219Y-55600769D01*
X79431532Y-55585986D01*
X79383174Y-55553674D01*
X79355861Y-55526361D01*
X79323549Y-55478003D01*
X79308766Y-55442314D01*
X79295480Y-55375519D01*
X79293578Y-55356206D01*
X79293578Y-55318929D01*
X79293578Y-55318926D01*
X79293578Y-55065958D01*
X79040627Y-55068943D01*
X79040625Y-55068943D01*
X78764562Y-55072201D01*
X78656102Y-55073481D01*
X78655872Y-55073484D01*
X78654945Y-55073492D01*
X78654578Y-55073494D01*
X78667054Y-54338755D01*
X79739086Y-54360738D01*
G37*
G04 #@! TD.AperFunction*
G04 #@! TA.AperFunction,Conductor*
G36*
X83145765Y-50270386D02*
G01*
X83212294Y-50283562D01*
X83247855Y-50298222D01*
X83296097Y-50330281D01*
X83323388Y-50357390D01*
X83355769Y-50405416D01*
X83370667Y-50440880D01*
X83384286Y-50507316D01*
X83386300Y-50526534D01*
X83393578Y-51615958D01*
X84683826Y-51615958D01*
X84703139Y-51617860D01*
X84769934Y-51631146D01*
X84805623Y-51645929D01*
X84853981Y-51678241D01*
X84881294Y-51705554D01*
X84913606Y-51753912D01*
X84928389Y-51789599D01*
X84941676Y-51856394D01*
X84943578Y-51875709D01*
X84943578Y-55215958D01*
X86485312Y-55215958D01*
X86504554Y-55217846D01*
X86522016Y-55221306D01*
X86571119Y-55231036D01*
X86606695Y-55245711D01*
X86640828Y-55268411D01*
X86678812Y-55316377D01*
X86685006Y-55351019D01*
X86684929Y-55395000D01*
X86684736Y-55504363D01*
X86684736Y-55505041D01*
X86684739Y-55506145D01*
X86687210Y-55965958D01*
X86689559Y-56403216D01*
X86698567Y-56462296D01*
X86715246Y-56516749D01*
X86715252Y-56516763D01*
X86741514Y-56572094D01*
X86751077Y-56614544D01*
X86751077Y-57186939D01*
X86747827Y-57212099D01*
X86738000Y-57249497D01*
X86712458Y-57294135D01*
X86684006Y-57322754D01*
X86639514Y-57348558D01*
X86600494Y-57359054D01*
X86549153Y-57359078D01*
X86509824Y-57348539D01*
X86465445Y-57322917D01*
X86436618Y-57294090D01*
X86410995Y-57249709D01*
X86396951Y-57197296D01*
X86393578Y-57171673D01*
X86393578Y-55965959D01*
X86393578Y-55965958D01*
X86393578Y-55715958D01*
X86143580Y-55715958D01*
X84453330Y-55715958D01*
X84434016Y-55714056D01*
X84411645Y-55709606D01*
X84367219Y-55700769D01*
X84331532Y-55685986D01*
X84283174Y-55653674D01*
X84255861Y-55626361D01*
X84223549Y-55578003D01*
X84208766Y-55542314D01*
X84195480Y-55475519D01*
X84193578Y-55456206D01*
X84193578Y-52565959D01*
X84193578Y-52565958D01*
X84193578Y-52315958D01*
X83943580Y-52315958D01*
X83003456Y-52315958D01*
X82984136Y-52314055D01*
X82917318Y-52300759D01*
X82881622Y-52285968D01*
X82833256Y-52253638D01*
X82805941Y-52226310D01*
X82773631Y-52177922D01*
X82758860Y-52142223D01*
X82745597Y-52075395D01*
X82743704Y-52056090D01*
X82743845Y-51770287D01*
X82744451Y-50528120D01*
X82746359Y-50508827D01*
X82759673Y-50442044D01*
X82774460Y-50406383D01*
X82806781Y-50358044D01*
X82834088Y-50330748D01*
X82882447Y-50298449D01*
X82918119Y-50283679D01*
X82954092Y-50276526D01*
X82984898Y-50270401D01*
X83004204Y-50268500D01*
X83126532Y-50268500D01*
X83145765Y-50270386D01*
G37*
G04 #@! TD.AperFunction*
G04 #@! TA.AperFunction,Conductor*
G36*
X87808998Y-49863808D02*
G01*
X87844962Y-49913308D01*
X87849806Y-49944329D01*
X87836593Y-52999188D01*
X87829058Y-53036645D01*
X87808535Y-53086190D01*
X87808533Y-53086199D01*
X87787896Y-53242957D01*
X87787896Y-53242958D01*
X87808533Y-53399717D01*
X87826967Y-53444222D01*
X87834501Y-53482534D01*
X87828000Y-54985982D01*
X87828000Y-55395000D01*
X87809093Y-55453191D01*
X87759593Y-55489155D01*
X87729000Y-55494000D01*
X87320000Y-55494000D01*
X87320000Y-55494001D01*
X87320000Y-56132031D01*
X87315990Y-56159922D01*
X87308902Y-56184060D01*
X87308901Y-56184064D01*
X87300578Y-56241953D01*
X87300578Y-56737254D01*
X87300735Y-56745299D01*
X87301120Y-56755139D01*
X87301122Y-56755154D01*
X87303574Y-56767155D01*
X87305578Y-56786973D01*
X87305579Y-57266958D01*
X87286672Y-57325149D01*
X87237172Y-57361113D01*
X87206579Y-57365958D01*
X87055578Y-57365958D01*
X86997387Y-57347051D01*
X86961423Y-57297551D01*
X86956578Y-57266958D01*
X86956577Y-56577560D01*
X86956576Y-56577553D01*
X86941318Y-56500841D01*
X86941317Y-56500839D01*
X86911740Y-56456574D01*
X86895056Y-56402107D01*
X86890236Y-55505041D01*
X86890236Y-55504726D01*
X86900061Y-49943724D01*
X86919071Y-49885569D01*
X86968635Y-49849692D01*
X86999061Y-49844901D01*
X87750807Y-49844901D01*
X87808998Y-49863808D01*
G37*
G04 #@! TD.AperFunction*
G04 #@! TA.AperFunction,Conductor*
G36*
X79784187Y-58558831D02*
G01*
X79830680Y-58612487D01*
X79842066Y-58664829D01*
X79842066Y-60262829D01*
X79822064Y-60330950D01*
X79768408Y-60377443D01*
X79716066Y-60388829D01*
X69368066Y-60388829D01*
X69299945Y-60368827D01*
X69253452Y-60315171D01*
X69242066Y-60262829D01*
X69242066Y-58664829D01*
X69262068Y-58596708D01*
X69315724Y-58550215D01*
X69368066Y-58538829D01*
X79716066Y-58538829D01*
X79784187Y-58558831D01*
G37*
G04 #@! TD.AperFunction*
G04 #@! TA.AperFunction,Conductor*
G36*
X86921805Y-57535276D02*
G01*
X86933885Y-57542494D01*
X86992076Y-57561401D01*
X87004130Y-57563310D01*
X87055574Y-57571458D01*
X87055578Y-57571458D01*
X87206572Y-57571458D01*
X87206579Y-57571458D01*
X87238723Y-57568928D01*
X87269316Y-57564083D01*
X87269327Y-57564081D01*
X87269372Y-57564074D01*
X87273860Y-57563311D01*
X87273862Y-57563311D01*
X87273863Y-57563310D01*
X87273866Y-57563310D01*
X87352759Y-57529589D01*
X87413696Y-57524105D01*
X87446668Y-57538307D01*
X87454666Y-57543651D01*
X87465961Y-57551198D01*
X87542677Y-57566458D01*
X87719478Y-57566457D01*
X87796195Y-57551198D01*
X87796572Y-57550945D01*
X87797299Y-57550740D01*
X87805205Y-57547466D01*
X87805592Y-57548401D01*
X87855458Y-57534334D01*
X87912863Y-57555507D01*
X87946859Y-57606379D01*
X87950578Y-57633258D01*
X87950578Y-59086958D01*
X87931671Y-59145149D01*
X87882171Y-59181113D01*
X87851578Y-59185958D01*
X87822017Y-59185958D01*
X87809115Y-59186465D01*
X87805887Y-59186592D01*
X87790388Y-59187812D01*
X87774394Y-59189705D01*
X87751469Y-59193334D01*
X87751438Y-59193340D01*
X87712266Y-59199544D01*
X87680922Y-59207069D01*
X87680914Y-59207071D01*
X87680911Y-59207072D01*
X87670003Y-59210615D01*
X87639421Y-59215458D01*
X87542681Y-59215458D01*
X87542673Y-59215459D01*
X87465962Y-59230717D01*
X87436078Y-59250685D01*
X87377189Y-59267292D01*
X87326077Y-59250684D01*
X87296197Y-59230719D01*
X87296195Y-59230718D01*
X87296192Y-59230717D01*
X87296191Y-59230717D01*
X87219488Y-59215459D01*
X87219480Y-59215458D01*
X87219479Y-59215458D01*
X87219478Y-59215458D01*
X87042680Y-59215458D01*
X87042673Y-59215459D01*
X86965962Y-59230717D01*
X86936078Y-59250685D01*
X86877189Y-59267292D01*
X86826077Y-59250684D01*
X86796197Y-59230719D01*
X86796195Y-59230718D01*
X86796192Y-59230717D01*
X86796191Y-59230717D01*
X86719488Y-59215459D01*
X86719480Y-59215458D01*
X86719479Y-59215458D01*
X86719478Y-59215458D01*
X86542680Y-59215458D01*
X86542673Y-59215459D01*
X86465961Y-59230717D01*
X86465960Y-59230718D01*
X86401567Y-59273744D01*
X86342679Y-59290352D01*
X86285275Y-59269174D01*
X86251283Y-59218300D01*
X86247566Y-59191428D01*
X86247566Y-59151585D01*
X86264251Y-59096583D01*
X86270682Y-59086958D01*
X86291318Y-59056075D01*
X86306578Y-58979359D01*
X86306577Y-58802558D01*
X86291318Y-58725841D01*
X86271351Y-58695959D01*
X86254743Y-58637072D01*
X86271352Y-58585956D01*
X86291316Y-58556078D01*
X86291316Y-58556077D01*
X86291318Y-58556075D01*
X86306578Y-58479359D01*
X86306577Y-58381000D01*
X86307700Y-58366134D01*
X86308552Y-58360523D01*
X86308553Y-58360512D01*
X86308772Y-58349411D01*
X86309566Y-58309274D01*
X86303616Y-58255956D01*
X86300287Y-58242472D01*
X86298386Y-58235330D01*
X86296427Y-58228466D01*
X86270593Y-58175415D01*
X86262117Y-58114822D01*
X86277284Y-58077077D01*
X86291318Y-58056075D01*
X86306578Y-57979359D01*
X86306577Y-57817186D01*
X86307649Y-57802654D01*
X86308687Y-57795660D01*
X86310589Y-57776345D01*
X86311578Y-57756206D01*
X86311578Y-57635116D01*
X86330485Y-57576925D01*
X86379985Y-57540961D01*
X86441171Y-57540961D01*
X86448460Y-57543651D01*
X86455771Y-57546679D01*
X86458243Y-57548001D01*
X86465958Y-57551196D01*
X86465961Y-57551198D01*
X86486870Y-57555356D01*
X86493163Y-57556824D01*
X86495962Y-57557575D01*
X86498595Y-57557921D01*
X86498792Y-57557947D01*
X86505200Y-57559003D01*
X86542677Y-57566458D01*
X86719478Y-57566457D01*
X86796195Y-57551198D01*
X86816025Y-57537947D01*
X86874910Y-57521338D01*
X86921805Y-57535276D01*
G37*
G04 #@! TD.AperFunction*
G04 #@! TA.AperFunction,Conductor*
G36*
X80938699Y-49981084D02*
G01*
X82174435Y-49987611D01*
X82594940Y-49989831D01*
X82653029Y-50009046D01*
X82688731Y-50058735D01*
X82688408Y-50119919D01*
X82664420Y-50158833D01*
X82607129Y-50216124D01*
X82607127Y-50216127D01*
X82554288Y-50324212D01*
X82554287Y-50324214D01*
X82546697Y-50376314D01*
X82544078Y-50394288D01*
X82544078Y-50466346D01*
X82543001Y-50480911D01*
X82541857Y-50488599D01*
X82541854Y-50488626D01*
X82539950Y-50507878D01*
X82539949Y-50507887D01*
X82538952Y-50527984D01*
X82538951Y-50528012D01*
X82538345Y-51770185D01*
X82538345Y-51770186D01*
X82538203Y-52055973D01*
X82538203Y-52055984D01*
X82539185Y-52076151D01*
X82541076Y-52095440D01*
X82544030Y-52115414D01*
X82557287Y-52182213D01*
X82557290Y-52182223D01*
X82568975Y-52220799D01*
X82583740Y-52256483D01*
X82583748Y-52256499D01*
X82602729Y-52292041D01*
X82635030Y-52340416D01*
X82635036Y-52340424D01*
X82660490Y-52371457D01*
X82660596Y-52371586D01*
X82687911Y-52398914D01*
X82687915Y-52398917D01*
X82719048Y-52424479D01*
X82719050Y-52424480D01*
X82719055Y-52424484D01*
X82767421Y-52456814D01*
X82767423Y-52456815D01*
X82767426Y-52456817D01*
X82767434Y-52456821D01*
X82802947Y-52475810D01*
X82802948Y-52475810D01*
X82802957Y-52475815D01*
X82838653Y-52490606D01*
X82877212Y-52502307D01*
X82929790Y-52512769D01*
X82943989Y-52515595D01*
X82944002Y-52515597D01*
X82944030Y-52515603D01*
X82963992Y-52518565D01*
X82983312Y-52520468D01*
X83003456Y-52521458D01*
X83889078Y-52521458D01*
X83947269Y-52540365D01*
X83983233Y-52589865D01*
X83988078Y-52620458D01*
X83988078Y-55456201D01*
X83989067Y-55476353D01*
X83989067Y-55476354D01*
X83990967Y-55495647D01*
X83990971Y-55495681D01*
X83993928Y-55515613D01*
X84007211Y-55582390D01*
X84007214Y-55582404D01*
X84011097Y-55595203D01*
X84018910Y-55620960D01*
X84033688Y-55656636D01*
X84033697Y-55656656D01*
X84052681Y-55692173D01*
X84084995Y-55740533D01*
X84084995Y-55740534D01*
X84110543Y-55771662D01*
X84110546Y-55771665D01*
X84110551Y-55771671D01*
X84137864Y-55798984D01*
X84137869Y-55798988D01*
X84137872Y-55798991D01*
X84169001Y-55824539D01*
X84217357Y-55856850D01*
X84217359Y-55856851D01*
X84217362Y-55856853D01*
X84241302Y-55869649D01*
X84252890Y-55875843D01*
X84252892Y-55875843D01*
X84275968Y-55885402D01*
X84288575Y-55890625D01*
X84292191Y-55891722D01*
X84342387Y-55926709D01*
X84362431Y-55984517D01*
X84344668Y-56043068D01*
X84295882Y-56079995D01*
X84263450Y-56085458D01*
X83797873Y-56085458D01*
X83739682Y-56066551D01*
X83703718Y-56017051D01*
X83698873Y-55986458D01*
X83698873Y-53425726D01*
X83698873Y-53425709D01*
X83697884Y-53405570D01*
X83695982Y-53386255D01*
X83693022Y-53366301D01*
X83679735Y-53299506D01*
X83668039Y-53260953D01*
X83653256Y-53225266D01*
X83634268Y-53189742D01*
X83630451Y-53184030D01*
X83601954Y-53141381D01*
X83601954Y-53141380D01*
X83576406Y-53110252D01*
X83576403Y-53110249D01*
X83576399Y-53110244D01*
X83549086Y-53082931D01*
X83549080Y-53082926D01*
X83549077Y-53082923D01*
X83517948Y-53057375D01*
X83469588Y-53025061D01*
X83434071Y-53006077D01*
X83434051Y-53006068D01*
X83398375Y-52991290D01*
X83388340Y-52988246D01*
X83359819Y-52979594D01*
X83359809Y-52979592D01*
X83359805Y-52979591D01*
X83293028Y-52966308D01*
X83273096Y-52963351D01*
X83273062Y-52963347D01*
X83253768Y-52961447D01*
X83242776Y-52960907D01*
X83233621Y-52960458D01*
X83233616Y-52960458D01*
X80796046Y-52960458D01*
X80737855Y-52941551D01*
X80701891Y-52892051D01*
X80697048Y-52862053D01*
X80693205Y-52222434D01*
X80692326Y-52076145D01*
X80691420Y-51925471D01*
X80690318Y-51905411D01*
X80688315Y-51886186D01*
X80686703Y-51875712D01*
X80686230Y-51872638D01*
X80685077Y-51857575D01*
X80685077Y-51794290D01*
X80685077Y-51794286D01*
X80674869Y-51724214D01*
X80622027Y-51616125D01*
X80536953Y-51531051D01*
X80536951Y-51531050D01*
X80536950Y-51531049D01*
X80509114Y-51517441D01*
X80465140Y-51474898D01*
X80454570Y-51414632D01*
X80481442Y-51359664D01*
X80509114Y-51339559D01*
X80517793Y-51335315D01*
X80536953Y-51325949D01*
X80622027Y-51240875D01*
X80622028Y-51240871D01*
X80624632Y-51238268D01*
X80629445Y-51232523D01*
X80630751Y-51231190D01*
X80655671Y-51200239D01*
X80687177Y-51152258D01*
X80705674Y-51117088D01*
X80720069Y-51081803D01*
X80731452Y-51043729D01*
X80744385Y-50977788D01*
X80747264Y-50958107D01*
X80749115Y-50939053D01*
X80750078Y-50919183D01*
X80750078Y-50079612D01*
X80768985Y-50021421D01*
X80818485Y-49985457D01*
X80849598Y-49980613D01*
X80938699Y-49981084D01*
G37*
G04 #@! TD.AperFunction*
G04 #@! TA.AperFunction,Conductor*
G36*
X81342925Y-54045246D02*
G01*
X81342941Y-54045248D01*
X81358757Y-54048663D01*
X81396036Y-54059973D01*
X81414712Y-54063688D01*
X81433915Y-54067508D01*
X81433917Y-54067508D01*
X81433921Y-54067509D01*
X81474013Y-54071458D01*
X82290204Y-54071458D01*
X82348395Y-54090365D01*
X82384359Y-54139865D01*
X82389202Y-54170022D01*
X82390104Y-54375764D01*
X82392610Y-54947855D01*
X82373958Y-55006128D01*
X82324616Y-55042309D01*
X82263431Y-55042577D01*
X82213774Y-55006830D01*
X82211459Y-55003535D01*
X82202604Y-54990368D01*
X82202603Y-54990366D01*
X82177039Y-54959386D01*
X82177035Y-54959382D01*
X82177026Y-54959372D01*
X82149750Y-54932228D01*
X82149741Y-54932219D01*
X82149734Y-54932213D01*
X82149724Y-54932204D01*
X82118652Y-54906814D01*
X82118645Y-54906809D01*
X82070374Y-54874680D01*
X82070361Y-54874673D01*
X82034926Y-54855800D01*
X82034915Y-54855795D01*
X81999327Y-54841103D01*
X81997137Y-54840441D01*
X81989553Y-54835164D01*
X81894266Y-54816271D01*
X81874381Y-54813331D01*
X81855129Y-54811441D01*
X81855134Y-54811441D01*
X81835085Y-54810459D01*
X81835061Y-54810458D01*
X81835053Y-54810458D01*
X81417950Y-54810458D01*
X81404508Y-54810898D01*
X81391596Y-54811744D01*
X81378186Y-54813064D01*
X81263343Y-54828183D01*
X81237501Y-54828183D01*
X81122657Y-54813064D01*
X81109247Y-54811744D01*
X81096335Y-54810898D01*
X81082894Y-54810458D01*
X80298078Y-54810458D01*
X80239887Y-54791551D01*
X80203923Y-54742051D01*
X80199078Y-54711458D01*
X80199078Y-54620508D01*
X80198114Y-54600627D01*
X80196261Y-54581566D01*
X80196257Y-54581532D01*
X80193384Y-54561903D01*
X80193377Y-54561860D01*
X80180429Y-54495886D01*
X80169034Y-54457796D01*
X80163912Y-54445250D01*
X80154625Y-54422497D01*
X80154623Y-54422494D01*
X80136113Y-54387322D01*
X80136109Y-54387315D01*
X80136108Y-54387313D01*
X80128522Y-54375768D01*
X80128519Y-54375764D01*
X80104565Y-54339311D01*
X80079619Y-54308351D01*
X80052937Y-54281116D01*
X80022494Y-54255539D01*
X80014950Y-54250357D01*
X79977692Y-54201825D01*
X79976075Y-54140661D01*
X80010718Y-54090228D01*
X80068388Y-54069790D01*
X80080715Y-54070233D01*
X80083097Y-54070468D01*
X80103242Y-54071458D01*
X80103256Y-54071458D01*
X81026830Y-54071458D01*
X81026831Y-54071458D01*
X81066924Y-54067509D01*
X81104808Y-54059973D01*
X81142100Y-54048659D01*
X81157907Y-54045246D01*
X81237499Y-54034769D01*
X81263342Y-54034769D01*
X81342925Y-54045246D01*
G37*
G04 #@! TD.AperFunction*
G04 #@! TA.AperFunction,Conductor*
G36*
X79598269Y-49997907D02*
G01*
X79634233Y-50047407D01*
X79639078Y-50078000D01*
X79639078Y-50887742D01*
X79639518Y-50901183D01*
X79640365Y-50914115D01*
X79641680Y-50927466D01*
X79641683Y-50927486D01*
X79643204Y-50939048D01*
X79643232Y-50939256D01*
X79644078Y-50952172D01*
X79644078Y-51062708D01*
X79644079Y-51062712D01*
X79654287Y-51132787D01*
X79706064Y-51238696D01*
X79707129Y-51240875D01*
X79792203Y-51325949D01*
X79792204Y-51325949D01*
X79792206Y-51325951D01*
X79820040Y-51339558D01*
X79864015Y-51382100D01*
X79874585Y-51442366D01*
X79847713Y-51497335D01*
X79820044Y-51517438D01*
X79792209Y-51531046D01*
X79792206Y-51531049D01*
X79792204Y-51531050D01*
X79792203Y-51531051D01*
X79734214Y-51589040D01*
X79707127Y-51616127D01*
X79660772Y-51710948D01*
X79654287Y-51724214D01*
X79647590Y-51770185D01*
X79644078Y-51794288D01*
X79644078Y-51865030D01*
X79643000Y-51879599D01*
X79641663Y-51888581D01*
X79639751Y-51907901D01*
X79638754Y-51928023D01*
X79638754Y-51928030D01*
X79638073Y-53425616D01*
X79637990Y-53605978D01*
X79637990Y-53605992D01*
X79638969Y-53626109D01*
X79638973Y-53626151D01*
X79640859Y-53645412D01*
X79640864Y-53645450D01*
X79643813Y-53665399D01*
X79643814Y-53665402D01*
X79657079Y-53732233D01*
X79657082Y-53732243D01*
X79668760Y-53770795D01*
X79668763Y-53770802D01*
X79683540Y-53806512D01*
X79702521Y-53842049D01*
X79734832Y-53890435D01*
X79760386Y-53921589D01*
X79760389Y-53921592D01*
X79787704Y-53948919D01*
X79818847Y-53974487D01*
X79819403Y-53974858D01*
X79819961Y-53975232D01*
X79820114Y-53975427D01*
X79820802Y-53975937D01*
X79820663Y-53976123D01*
X79857834Y-54023286D01*
X79860229Y-54084425D01*
X79826229Y-54135294D01*
X79768823Y-54156464D01*
X79758133Y-54156305D01*
X79743307Y-54155281D01*
X79743258Y-54155279D01*
X78974631Y-54139518D01*
X78916840Y-54119422D01*
X78881899Y-54069195D01*
X78877675Y-54038863D01*
X78884668Y-53627042D01*
X78881083Y-53585176D01*
X78873562Y-53545611D01*
X78861534Y-53505347D01*
X78854710Y-53488873D01*
X78848022Y-53463913D01*
X78837849Y-53386636D01*
X78837849Y-53360794D01*
X78845917Y-53299506D01*
X78848021Y-53283520D01*
X78854711Y-53258557D01*
X78864967Y-53233797D01*
X78870322Y-53220870D01*
X78881668Y-53184030D01*
X78889190Y-53147826D01*
X78893457Y-53109512D01*
X78924514Y-51280566D01*
X78921115Y-51240875D01*
X78920929Y-51238702D01*
X78920928Y-51238700D01*
X78920928Y-51238696D01*
X78913406Y-51199130D01*
X78901379Y-51158869D01*
X78868173Y-51078705D01*
X78861487Y-51053750D01*
X78851313Y-50976463D01*
X78851313Y-50950636D01*
X78861487Y-50873349D01*
X78868173Y-50848397D01*
X78912423Y-50741570D01*
X78923769Y-50704731D01*
X78931291Y-50668527D01*
X78935558Y-50630214D01*
X78944965Y-50076318D01*
X78964858Y-50018458D01*
X79014962Y-49983339D01*
X79043951Y-49979000D01*
X79540078Y-49979000D01*
X79598269Y-49997907D01*
G37*
G04 #@! TD.AperFunction*
G04 #@! TA.AperFunction,Conductor*
G36*
X107910482Y-40018907D02*
G01*
X107946446Y-40068407D01*
X107946446Y-40129593D01*
X107910482Y-40179093D01*
X107886153Y-40192028D01*
X107627386Y-40286212D01*
X107627385Y-40286212D01*
X107627383Y-40286213D01*
X107320248Y-40440462D01*
X107033099Y-40629324D01*
X106769814Y-40850245D01*
X106533959Y-41100237D01*
X106328717Y-41375924D01*
X106328715Y-41375927D01*
X106156869Y-41673574D01*
X106156866Y-41673580D01*
X106020738Y-41989157D01*
X106020736Y-41989164D01*
X105922165Y-42318415D01*
X105922165Y-42318417D01*
X105862484Y-42656884D01*
X105842500Y-43000000D01*
X105862484Y-43343115D01*
X105922165Y-43681582D01*
X105922165Y-43681584D01*
X105976775Y-43863994D01*
X106020738Y-44010841D01*
X106156869Y-44326426D01*
X106328716Y-44624074D01*
X106533956Y-44899759D01*
X106769813Y-45149753D01*
X107033098Y-45370675D01*
X107320250Y-45559538D01*
X107627386Y-45713788D01*
X107950353Y-45831338D01*
X107950356Y-45831338D01*
X107950357Y-45831339D01*
X108284772Y-45910597D01*
X108284777Y-45910597D01*
X108284783Y-45910599D01*
X108626153Y-45950500D01*
X108626157Y-45950500D01*
X108969843Y-45950500D01*
X108969847Y-45950500D01*
X109311217Y-45910599D01*
X109311223Y-45910597D01*
X109311227Y-45910597D01*
X109534170Y-45857758D01*
X109645647Y-45831338D01*
X109968614Y-45713788D01*
X110275750Y-45559538D01*
X110562902Y-45370675D01*
X110826187Y-45149753D01*
X111062044Y-44899759D01*
X111267284Y-44624074D01*
X111439131Y-44326426D01*
X111575262Y-44010841D01*
X111604159Y-43914318D01*
X111638961Y-43863994D01*
X111696696Y-43843738D01*
X111755311Y-43861286D01*
X111792417Y-43909935D01*
X111798000Y-43942711D01*
X111798000Y-73141288D01*
X111779093Y-73199479D01*
X111729593Y-73235443D01*
X111668407Y-73235443D01*
X111618907Y-73199479D01*
X111604159Y-73169681D01*
X111575263Y-73073164D01*
X111575261Y-73073157D01*
X111566782Y-73053500D01*
X111439131Y-72757574D01*
X111267284Y-72459926D01*
X111062044Y-72184241D01*
X110826187Y-71934247D01*
X110562902Y-71713325D01*
X110469826Y-71652108D01*
X110275751Y-71524462D01*
X109968616Y-71370213D01*
X109968615Y-71370212D01*
X109968614Y-71370212D01*
X109645647Y-71252662D01*
X109645648Y-71252662D01*
X109645642Y-71252660D01*
X109311227Y-71173402D01*
X109220649Y-71162815D01*
X108969847Y-71133500D01*
X108626153Y-71133500D01*
X108414267Y-71158266D01*
X108284772Y-71173402D01*
X107950357Y-71252660D01*
X107756835Y-71323096D01*
X107627386Y-71370212D01*
X107627385Y-71370212D01*
X107627383Y-71370213D01*
X107320248Y-71524462D01*
X107033099Y-71713324D01*
X106769814Y-71934245D01*
X106533959Y-72184237D01*
X106328717Y-72459924D01*
X106328715Y-72459927D01*
X106156869Y-72757574D01*
X106156866Y-72757580D01*
X106020738Y-73073157D01*
X106020736Y-73073164D01*
X105922165Y-73402415D01*
X105922165Y-73402417D01*
X105862484Y-73740884D01*
X105842500Y-74084000D01*
X105862484Y-74427115D01*
X105922165Y-74765582D01*
X105922165Y-74765584D01*
X106020736Y-75094835D01*
X106020738Y-75094841D01*
X106156869Y-75410426D01*
X106328716Y-75708074D01*
X106533956Y-75983759D01*
X106769813Y-76233753D01*
X107033098Y-76454675D01*
X107320250Y-76643538D01*
X107627386Y-76797788D01*
X107886152Y-76891970D01*
X107934366Y-76929640D01*
X107951231Y-76988455D01*
X107930304Y-77045950D01*
X107879579Y-77080165D01*
X107852291Y-77084000D01*
X69399799Y-77084000D01*
X69399584Y-77083999D01*
X69399081Y-77083997D01*
X69398365Y-77083995D01*
X69397665Y-77083990D01*
X69396374Y-77083976D01*
X69396060Y-77083972D01*
X69243144Y-77081828D01*
X69240716Y-77081764D01*
X69232110Y-77081432D01*
X69227270Y-77081127D01*
X69219304Y-77080427D01*
X69218686Y-77080373D01*
X69216262Y-77080131D01*
X68910395Y-77045668D01*
X68907637Y-77045317D01*
X68897907Y-77043943D01*
X68892441Y-77043015D01*
X68882756Y-77041089D01*
X68880035Y-77040508D01*
X68581890Y-76972458D01*
X68579190Y-76971801D01*
X68569631Y-76969335D01*
X68564296Y-76967798D01*
X68554887Y-76964799D01*
X68552254Y-76963919D01*
X68263602Y-76862915D01*
X68260995Y-76861962D01*
X68251805Y-76858454D01*
X68246669Y-76856326D01*
X68237644Y-76852287D01*
X68235131Y-76851120D01*
X67959604Y-76718435D01*
X67957114Y-76717193D01*
X67948352Y-76712665D01*
X67943511Y-76709990D01*
X67942061Y-76709135D01*
X67934983Y-76704959D01*
X67932663Y-76703547D01*
X67673673Y-76540813D01*
X67671341Y-76539301D01*
X67663158Y-76533833D01*
X67658628Y-76530619D01*
X67650729Y-76524674D01*
X67648537Y-76522975D01*
X67409469Y-76332325D01*
X67407325Y-76330566D01*
X67399769Y-76324186D01*
X67395626Y-76320484D01*
X67388484Y-76313732D01*
X67386492Y-76311796D01*
X67170203Y-76095507D01*
X67168267Y-76093515D01*
X67161515Y-76086373D01*
X67157813Y-76082230D01*
X67151433Y-76074674D01*
X67149674Y-76072530D01*
X66959024Y-75833462D01*
X66957325Y-75831270D01*
X66951380Y-75823371D01*
X66948166Y-75818841D01*
X66942698Y-75810658D01*
X66941186Y-75808326D01*
X66778439Y-75549316D01*
X66777052Y-75547037D01*
X66772004Y-75538480D01*
X66769340Y-75533660D01*
X66764789Y-75524851D01*
X66763564Y-75522395D01*
X66630879Y-75246868D01*
X66629712Y-75244355D01*
X66625673Y-75235330D01*
X66623553Y-75230215D01*
X66620022Y-75220965D01*
X66619084Y-75218397D01*
X66518080Y-74929745D01*
X66517200Y-74927112D01*
X66514201Y-74917703D01*
X66512664Y-74912368D01*
X66510198Y-74902809D01*
X66509551Y-74900153D01*
X66441481Y-74601920D01*
X66440910Y-74599243D01*
X66438984Y-74589558D01*
X66438056Y-74584092D01*
X66436682Y-74574362D01*
X66436337Y-74571656D01*
X66401861Y-74265669D01*
X66401632Y-74263387D01*
X66400871Y-74254720D01*
X66400567Y-74249889D01*
X66400235Y-74241283D01*
X66400171Y-74238855D01*
X66398025Y-74085752D01*
X66398006Y-74084000D01*
X66398000Y-74082248D01*
X66398000Y-58664824D01*
X69036566Y-58664824D01*
X69036566Y-58664829D01*
X69036566Y-60262829D01*
X69041262Y-60306510D01*
X69052648Y-60358852D01*
X69054541Y-60366600D01*
X69055136Y-60369033D01*
X69085597Y-60426197D01*
X69098145Y-60449745D01*
X69144638Y-60503401D01*
X69162231Y-60521356D01*
X69242049Y-60566003D01*
X69310170Y-60586005D01*
X69329468Y-60588779D01*
X69368062Y-60594329D01*
X69368066Y-60594329D01*
X69875850Y-60594329D01*
X69917688Y-60603604D01*
X70011329Y-60647270D01*
X70223375Y-60704088D01*
X70223379Y-60704088D01*
X70223382Y-60704089D01*
X70442063Y-60723221D01*
X70442066Y-60723221D01*
X70442069Y-60723221D01*
X70660749Y-60704089D01*
X70660750Y-60704088D01*
X70660757Y-60704088D01*
X70872803Y-60647270D01*
X70966443Y-60603604D01*
X71008282Y-60594329D01*
X79716061Y-60594329D01*
X79716066Y-60594329D01*
X79759747Y-60589633D01*
X79812089Y-60578247D01*
X79822269Y-60575759D01*
X79822273Y-60575756D01*
X79826874Y-60574632D01*
X79887890Y-60579182D01*
X79925200Y-60605968D01*
X79944638Y-60628401D01*
X79962231Y-60646356D01*
X80042049Y-60691003D01*
X80110170Y-60711005D01*
X80129468Y-60713779D01*
X80168062Y-60719329D01*
X80168066Y-60719329D01*
X85916061Y-60719329D01*
X85916066Y-60719329D01*
X85959747Y-60714633D01*
X86012089Y-60703247D01*
X86022269Y-60700759D01*
X86102982Y-60657750D01*
X86156638Y-60611257D01*
X86174593Y-60593664D01*
X86219240Y-60513846D01*
X86239242Y-60445725D01*
X86239313Y-60445230D01*
X86239378Y-60445098D01*
X86239993Y-60442272D01*
X86240692Y-60442424D01*
X86266294Y-60390321D01*
X86320402Y-60361755D01*
X86380967Y-60370448D01*
X86392308Y-60376985D01*
X86411222Y-60389623D01*
X86465961Y-60426198D01*
X86542677Y-60441458D01*
X86719478Y-60441457D01*
X86796195Y-60426198D01*
X86826076Y-60406231D01*
X86884964Y-60389623D01*
X86936080Y-60406232D01*
X86965957Y-60426196D01*
X86965958Y-60426196D01*
X86965961Y-60426198D01*
X87042677Y-60441458D01*
X87142500Y-60441457D01*
X87200690Y-60460364D01*
X87236654Y-60509863D01*
X87241500Y-60540457D01*
X87241500Y-75489436D01*
X87241822Y-75500938D01*
X87242444Y-75512032D01*
X87242445Y-75512039D01*
X87243414Y-75523527D01*
X87259093Y-75662693D01*
X87262956Y-75685427D01*
X87267890Y-75707038D01*
X87268189Y-75708075D01*
X87274271Y-75729186D01*
X87318662Y-75856045D01*
X87327491Y-75877359D01*
X87337108Y-75897328D01*
X87348248Y-75917486D01*
X87389892Y-75983762D01*
X87419780Y-76031328D01*
X87433113Y-76050120D01*
X87446935Y-76067453D01*
X87462294Y-76084639D01*
X87557360Y-76179705D01*
X87574546Y-76195064D01*
X87591879Y-76208886D01*
X87610671Y-76222219D01*
X87696852Y-76276370D01*
X87724512Y-76293750D01*
X87743932Y-76304482D01*
X87744679Y-76304895D01*
X87759010Y-76311796D01*
X87764639Y-76314507D01*
X87764642Y-76314508D01*
X87764652Y-76314513D01*
X87785937Y-76323330D01*
X87785946Y-76323333D01*
X87785953Y-76323336D01*
X87912810Y-76367726D01*
X87912814Y-76367727D01*
X87912828Y-76367732D01*
X87934965Y-76374110D01*
X87956578Y-76379044D01*
X87979307Y-76382906D01*
X88039320Y-76389667D01*
X88039322Y-76389668D01*
X88118450Y-76398584D01*
X88118458Y-76398584D01*
X88118470Y-76398586D01*
X88129965Y-76399555D01*
X88141048Y-76400177D01*
X88151740Y-76400476D01*
X88152562Y-76400500D01*
X88152563Y-76400500D01*
X89624436Y-76400500D01*
X89624437Y-76400500D01*
X89635968Y-76400176D01*
X89647053Y-76399553D01*
X89658531Y-76398585D01*
X89797693Y-76382905D01*
X89809824Y-76380843D01*
X89820379Y-76379051D01*
X89820387Y-76379049D01*
X89820412Y-76379045D01*
X89842025Y-76374112D01*
X89864171Y-76367732D01*
X89991062Y-76323330D01*
X90012347Y-76314513D01*
X90032320Y-76304895D01*
X90052493Y-76293746D01*
X90166328Y-76222219D01*
X90185120Y-76208886D01*
X90202453Y-76195064D01*
X90219639Y-76179705D01*
X90314705Y-76084639D01*
X90330064Y-76067453D01*
X90343886Y-76050120D01*
X90357219Y-76031328D01*
X90428746Y-75917493D01*
X90439895Y-75897320D01*
X90449513Y-75877347D01*
X90458330Y-75856062D01*
X90502732Y-75729171D01*
X90509110Y-75707034D01*
X90514044Y-75685421D01*
X90517906Y-75662693D01*
X90533586Y-75523530D01*
X90534555Y-75512034D01*
X90535177Y-75500949D01*
X90535500Y-75489436D01*
X90535500Y-74063563D01*
X90535177Y-74052050D01*
X90534555Y-74040965D01*
X90533586Y-74029469D01*
X90517906Y-73890306D01*
X90514044Y-73867578D01*
X90509110Y-73845965D01*
X90502732Y-73823828D01*
X90458330Y-73696937D01*
X90449513Y-73675652D01*
X90439895Y-73655679D01*
X90439482Y-73654932D01*
X90428750Y-73635512D01*
X90411370Y-73607852D01*
X90357219Y-73521671D01*
X90343886Y-73502879D01*
X90330064Y-73485546D01*
X90314705Y-73468360D01*
X90219639Y-73373294D01*
X90202453Y-73357935D01*
X90185120Y-73344113D01*
X90175724Y-73337446D01*
X90166337Y-73330786D01*
X90166332Y-73330783D01*
X90166328Y-73330780D01*
X90124847Y-73304716D01*
X90052486Y-73259248D01*
X90032329Y-73248109D01*
X90032320Y-73248104D01*
X90012347Y-73238486D01*
X90012337Y-73238481D01*
X90000599Y-73233619D01*
X89991059Y-73229668D01*
X89991048Y-73229664D01*
X89991038Y-73229660D01*
X89989994Y-73229294D01*
X89989991Y-73229294D01*
X89864165Y-73185264D01*
X89864160Y-73185263D01*
X89842050Y-73178894D01*
X89842026Y-73178887D01*
X89820433Y-73173958D01*
X89820416Y-73173954D01*
X89802458Y-73170902D01*
X89797694Y-73170093D01*
X89797689Y-73170092D01*
X89797686Y-73170092D01*
X89780585Y-73168165D01*
X89658528Y-73154413D01*
X89657928Y-73154362D01*
X89647021Y-73153443D01*
X89640089Y-73153054D01*
X89635933Y-73152822D01*
X89629035Y-73152628D01*
X89624439Y-73152500D01*
X89624437Y-73152500D01*
X88567500Y-73152500D01*
X88509309Y-73133593D01*
X88473345Y-73084093D01*
X88468500Y-73053500D01*
X88468500Y-59800803D01*
X88468500Y-59800790D01*
X88467866Y-59784665D01*
X88466647Y-59769178D01*
X88464751Y-59753155D01*
X88448454Y-59650261D01*
X88446457Y-59641943D01*
X88451258Y-59580949D01*
X88490995Y-59534424D01*
X88542305Y-59519836D01*
X90905481Y-59509911D01*
X90936984Y-59507348D01*
X90966967Y-59502566D01*
X90970878Y-59501904D01*
X91055049Y-59466132D01*
X91068582Y-59456341D01*
X91126811Y-59437553D01*
X91177384Y-59451566D01*
X91245885Y-59492494D01*
X91304076Y-59511401D01*
X91315019Y-59513134D01*
X91367574Y-59521458D01*
X91367578Y-59521458D01*
X96169571Y-59521458D01*
X96169578Y-59521458D01*
X96201722Y-59518928D01*
X96232315Y-59514083D01*
X96232326Y-59514081D01*
X96232371Y-59514074D01*
X96236859Y-59513311D01*
X96236858Y-59513311D01*
X96236865Y-59513310D01*
X96320961Y-59477366D01*
X96370461Y-59441402D01*
X96398206Y-59417161D01*
X96439336Y-59348320D01*
X96485413Y-59308065D01*
X96546352Y-59302580D01*
X96598876Y-59333962D01*
X96611692Y-59352543D01*
X96624106Y-59375841D01*
X96624657Y-59376874D01*
X96624659Y-59376876D01*
X96670924Y-59430270D01*
X96671150Y-59430530D01*
X96688743Y-59448485D01*
X96768561Y-59493132D01*
X96836682Y-59513134D01*
X96855980Y-59515908D01*
X96894574Y-59521458D01*
X96894578Y-59521458D01*
X107202362Y-59521458D01*
X107244200Y-59530733D01*
X107337841Y-59574399D01*
X107549887Y-59631217D01*
X107549891Y-59631217D01*
X107549894Y-59631218D01*
X107768575Y-59650350D01*
X107768578Y-59650350D01*
X107768581Y-59650350D01*
X107987261Y-59631218D01*
X107987262Y-59631217D01*
X107987269Y-59631217D01*
X108199315Y-59574399D01*
X108292955Y-59530733D01*
X108334794Y-59521458D01*
X108642573Y-59521458D01*
X108642578Y-59521458D01*
X108686259Y-59516762D01*
X108738601Y-59505376D01*
X108748781Y-59502888D01*
X108829494Y-59459879D01*
X108883150Y-59413386D01*
X108901105Y-59395793D01*
X108945752Y-59315975D01*
X108965754Y-59247854D01*
X108971108Y-59210615D01*
X108974078Y-59189962D01*
X108974078Y-58752404D01*
X108977451Y-58726781D01*
X108977703Y-58725841D01*
X109008837Y-58609649D01*
X109009075Y-58606935D01*
X109027970Y-58390961D01*
X109027970Y-58390954D01*
X109008838Y-58172274D01*
X109008837Y-58172271D01*
X109008837Y-58172267D01*
X108977451Y-58055133D01*
X108974078Y-58029510D01*
X108974078Y-57591962D01*
X108973574Y-57587272D01*
X108969382Y-57548277D01*
X108957996Y-57495935D01*
X108955508Y-57485755D01*
X108954761Y-57484354D01*
X108936867Y-57450773D01*
X108912499Y-57405042D01*
X108884603Y-57372848D01*
X108866008Y-57351388D01*
X108848414Y-57333432D01*
X108848413Y-57333431D01*
X108768595Y-57288784D01*
X108735369Y-57279028D01*
X108700471Y-57268781D01*
X108642582Y-57260458D01*
X108642578Y-57260458D01*
X108334794Y-57260458D01*
X108292955Y-57251182D01*
X108257348Y-57234578D01*
X108199316Y-57207517D01*
X108027422Y-57161458D01*
X107987269Y-57150699D01*
X107987268Y-57150698D01*
X107987261Y-57150697D01*
X107768581Y-57131566D01*
X107768575Y-57131566D01*
X107549894Y-57150697D01*
X107337839Y-57207517D01*
X107272764Y-57237863D01*
X107244200Y-57251182D01*
X107202362Y-57260458D01*
X96894578Y-57260458D01*
X96859176Y-57264264D01*
X96850896Y-57265154D01*
X96838545Y-57267841D01*
X96798555Y-57276540D01*
X96793238Y-57277839D01*
X96788373Y-57279028D01*
X96707663Y-57322036D01*
X96707659Y-57322039D01*
X96654008Y-57368527D01*
X96636051Y-57386122D01*
X96610887Y-57431109D01*
X96565978Y-57472664D01*
X96505220Y-57479885D01*
X96451821Y-57450015D01*
X96433453Y-57421688D01*
X96429986Y-57413575D01*
X96394022Y-57364075D01*
X96369781Y-57336330D01*
X96291271Y-57289422D01*
X96291269Y-57289421D01*
X96291267Y-57289420D01*
X96233077Y-57270514D01*
X96233078Y-57270514D01*
X96169581Y-57260458D01*
X96169578Y-57260458D01*
X91367578Y-57260458D01*
X91350269Y-57261820D01*
X91335428Y-57262988D01*
X91327374Y-57264264D01*
X91266943Y-57254688D01*
X91223681Y-57211421D01*
X91212894Y-57166280D01*
X91217270Y-55038490D01*
X91217875Y-54744296D01*
X91236902Y-54686145D01*
X91286476Y-54650283D01*
X91316875Y-54645500D01*
X92574091Y-54645500D01*
X92574100Y-54645500D01*
X92607165Y-54642822D01*
X92638608Y-54637696D01*
X92644063Y-54636732D01*
X92644064Y-54636731D01*
X92644066Y-54636731D01*
X92681090Y-54620508D01*
X92727831Y-54600028D01*
X92777004Y-54563618D01*
X92804530Y-54539127D01*
X92850725Y-54460195D01*
X92869105Y-54401835D01*
X92878588Y-54338244D01*
X92870380Y-53431244D01*
X92867711Y-53400041D01*
X92862870Y-53370344D01*
X92862244Y-53366713D01*
X92826300Y-53282617D01*
X92790336Y-53233117D01*
X92766095Y-53205372D01*
X92687585Y-53158464D01*
X92687583Y-53158463D01*
X92687581Y-53158462D01*
X92629391Y-53139556D01*
X92629392Y-53139556D01*
X92565895Y-53129500D01*
X92565892Y-53129500D01*
X90340000Y-53129500D01*
X90307856Y-53132030D01*
X90277206Y-53136883D01*
X90272718Y-53137646D01*
X90272713Y-53137647D01*
X90188617Y-53173591D01*
X90139118Y-53209555D01*
X90111372Y-53233797D01*
X90064464Y-53312307D01*
X90064462Y-53312310D01*
X90045556Y-53370499D01*
X90035500Y-53433996D01*
X90035500Y-57161458D01*
X90016593Y-57219649D01*
X89967093Y-57255613D01*
X89936500Y-57260458D01*
X88255078Y-57260458D01*
X88222934Y-57262988D01*
X88192284Y-57267841D01*
X88187796Y-57268604D01*
X88187791Y-57268605D01*
X88098582Y-57306735D01*
X88098031Y-57305445D01*
X88044472Y-57316400D01*
X87988769Y-57291085D01*
X87958585Y-57237863D01*
X87956577Y-57218031D01*
X87956577Y-57091325D01*
X87975484Y-57033135D01*
X88024984Y-56997171D01*
X88054201Y-56992336D01*
X89434682Y-56973163D01*
X89434686Y-56973163D01*
X89476898Y-56968180D01*
X89476900Y-56968180D01*
X89527463Y-56956813D01*
X89528115Y-56956650D01*
X89536281Y-56954625D01*
X89616994Y-56911616D01*
X89670650Y-56865123D01*
X89688605Y-56847530D01*
X89733252Y-56767712D01*
X89753254Y-56699591D01*
X89757163Y-56672402D01*
X89761578Y-56641699D01*
X89761578Y-52470458D01*
X89780485Y-52412267D01*
X89829985Y-52376303D01*
X89860578Y-52371458D01*
X90128626Y-52371458D01*
X90128632Y-52371458D01*
X90173459Y-52366509D01*
X90227106Y-52354518D01*
X90238401Y-52351655D01*
X90318617Y-52307727D01*
X90371738Y-52260625D01*
X90389490Y-52242830D01*
X90433223Y-52162508D01*
X90452447Y-52094163D01*
X90460111Y-52036175D01*
X90434688Y-49808236D01*
X90433366Y-49787196D01*
X90431674Y-49772430D01*
X90431033Y-49761633D01*
X90431029Y-49760777D01*
X90431031Y-49760731D01*
X90430974Y-49749703D01*
X90430974Y-49749702D01*
X90430972Y-49749678D01*
X90418155Y-47164093D01*
X90417684Y-47151158D01*
X90416838Y-47138728D01*
X90415554Y-47125862D01*
X90409368Y-47078869D01*
X90409368Y-47053041D01*
X90414602Y-47013283D01*
X90415952Y-46999401D01*
X90416798Y-46985990D01*
X90417203Y-46972033D01*
X90400520Y-43606661D01*
X90419139Y-43548379D01*
X90468460Y-43512170D01*
X90480167Y-43509082D01*
X90496656Y-43505795D01*
X90496658Y-43505794D01*
X90496675Y-43505791D01*
X90535308Y-43494045D01*
X90571065Y-43479197D01*
X90606657Y-43460121D01*
X90639977Y-43437792D01*
X90671144Y-43412133D01*
X90698467Y-43384713D01*
X90724016Y-43353455D01*
X90746224Y-43320060D01*
X90763864Y-43286864D01*
X90807866Y-43244351D01*
X90868454Y-43235821D01*
X90922484Y-43264532D01*
X90939386Y-43291107D01*
X90940158Y-43290696D01*
X90943069Y-43296160D01*
X90943070Y-43296161D01*
X90986079Y-43376874D01*
X90989247Y-43380530D01*
X91016633Y-43412136D01*
X91032572Y-43430530D01*
X91050165Y-43448485D01*
X91129983Y-43493132D01*
X91198104Y-43513134D01*
X91217402Y-43515908D01*
X91255996Y-43521458D01*
X91256000Y-43521458D01*
X91401317Y-43521458D01*
X91459508Y-43540365D01*
X91495472Y-43589865D01*
X91500317Y-43620543D01*
X91499145Y-44989521D01*
X91480188Y-45047695D01*
X91479801Y-45048224D01*
X91406461Y-45147597D01*
X91362854Y-45272218D01*
X91362852Y-45272226D01*
X91360078Y-45301804D01*
X91360078Y-45882337D01*
X91362852Y-45911915D01*
X91362854Y-45911923D01*
X91406461Y-46036544D01*
X91478771Y-46134522D01*
X91498112Y-46192570D01*
X91498115Y-46193395D01*
X91492681Y-52545588D01*
X91492681Y-52545590D01*
X91496551Y-52585459D01*
X91496552Y-52585471D01*
X91505991Y-52633420D01*
X91507363Y-52639846D01*
X91507364Y-52639849D01*
X91547207Y-52722170D01*
X91580958Y-52764323D01*
X91591568Y-52777574D01*
X91591589Y-52777599D01*
X91593000Y-52779156D01*
X91608464Y-52796215D01*
X91686488Y-52843927D01*
X91753781Y-52866559D01*
X91753792Y-52866561D01*
X91811304Y-52877124D01*
X91811305Y-52877124D01*
X91811310Y-52877125D01*
X92509783Y-52904265D01*
X92557419Y-52900557D01*
X92600668Y-52892051D01*
X92614529Y-52889325D01*
X92628484Y-52886071D01*
X92628486Y-52886069D01*
X92628489Y-52886069D01*
X92709251Y-52843155D01*
X92762961Y-52796726D01*
X92780936Y-52779156D01*
X92825678Y-52699391D01*
X92845761Y-52631294D01*
X92854154Y-52573407D01*
X92865716Y-42791011D01*
X92884692Y-42732844D01*
X92888177Y-42728337D01*
X92935685Y-42670450D01*
X93033232Y-42487954D01*
X93093300Y-42289934D01*
X93093301Y-42289929D01*
X93113583Y-42084003D01*
X93113583Y-42083996D01*
X93093301Y-41878070D01*
X93093300Y-41878065D01*
X93046565Y-41724000D01*
X93033232Y-41680046D01*
X92935685Y-41497550D01*
X92889856Y-41441707D01*
X92867557Y-41384730D01*
X92867385Y-41378786D01*
X92867398Y-41368091D01*
X92867851Y-40985192D01*
X92863181Y-40941386D01*
X92863148Y-40941236D01*
X92851794Y-40888891D01*
X92849282Y-40878602D01*
X92849281Y-40878597D01*
X92806272Y-40797884D01*
X92759779Y-40744228D01*
X92742186Y-40726273D01*
X92662368Y-40681626D01*
X92629142Y-40671870D01*
X92594244Y-40661623D01*
X92536355Y-40653300D01*
X92536351Y-40653300D01*
X91256000Y-40653300D01*
X91219599Y-40657213D01*
X91212318Y-40657996D01*
X91199836Y-40660711D01*
X91159977Y-40669382D01*
X91154660Y-40670681D01*
X91149795Y-40671870D01*
X91069085Y-40714878D01*
X91069081Y-40714881D01*
X91015430Y-40761369D01*
X90997474Y-40778963D01*
X90952826Y-40858782D01*
X90932823Y-40926906D01*
X90932822Y-40926911D01*
X90932489Y-40929228D01*
X90932183Y-40929849D01*
X90932073Y-40930357D01*
X90931947Y-40930329D01*
X90905484Y-40984131D01*
X90851365Y-41012676D01*
X90790804Y-41003959D01*
X90747304Y-40962005D01*
X90734841Y-40938825D01*
X90734840Y-40938823D01*
X90734836Y-40938816D01*
X90702487Y-40890633D01*
X90676925Y-40859611D01*
X90649623Y-40832406D01*
X90649620Y-40832403D01*
X90634043Y-40819661D01*
X90618514Y-40806957D01*
X90618510Y-40806954D01*
X90618506Y-40806951D01*
X90570439Y-40774926D01*
X90570328Y-40774852D01*
X90570080Y-40774687D01*
X90570056Y-40774672D01*
X90534751Y-40755871D01*
X90534747Y-40755869D01*
X90499130Y-40741153D01*
X90484856Y-40736833D01*
X90460661Y-40729512D01*
X90460656Y-40729511D01*
X90394014Y-40716284D01*
X90393999Y-40716282D01*
X90374127Y-40713339D01*
X90374094Y-40713335D01*
X90367668Y-40712704D01*
X90354822Y-40711442D01*
X90354813Y-40711441D01*
X90354797Y-40711440D01*
X90334765Y-40710459D01*
X90334739Y-40710458D01*
X90334731Y-40710458D01*
X88703330Y-40710458D01*
X88696006Y-40710817D01*
X88683182Y-40711447D01*
X88683181Y-40711447D01*
X88663875Y-40713348D01*
X88663872Y-40713349D01*
X88643924Y-40716308D01*
X88612196Y-40722618D01*
X88612197Y-40722619D01*
X88577121Y-40729595D01*
X88538591Y-40741283D01*
X88538575Y-40741289D01*
X88502888Y-40756071D01*
X88467373Y-40775055D01*
X88467366Y-40775059D01*
X88423540Y-40804340D01*
X88423459Y-40804397D01*
X88418982Y-40807388D01*
X88387863Y-40832931D01*
X88387851Y-40832942D01*
X88360555Y-40860239D01*
X88360543Y-40860252D01*
X88334995Y-40891380D01*
X88334995Y-40891381D01*
X88302685Y-40939736D01*
X88301786Y-40941236D01*
X88301539Y-40941450D01*
X88301331Y-40941763D01*
X88301246Y-40941706D01*
X88255645Y-40981419D01*
X88194698Y-40986808D01*
X88142223Y-40955344D01*
X88129509Y-40936881D01*
X88087499Y-40858042D01*
X88041006Y-40804386D01*
X88023413Y-40786431D01*
X87943595Y-40741784D01*
X87902723Y-40729783D01*
X87875471Y-40721781D01*
X87817582Y-40713458D01*
X87817578Y-40713458D01*
X86212407Y-40713458D01*
X86212400Y-40713458D01*
X86168416Y-40718222D01*
X86168403Y-40718224D01*
X86168401Y-40718225D01*
X86115689Y-40729781D01*
X86115681Y-40729783D01*
X86105190Y-40732373D01*
X86105184Y-40732376D01*
X86024622Y-40775641D01*
X86024614Y-40775647D01*
X85971117Y-40822307D01*
X85953214Y-40839962D01*
X85908829Y-40919917D01*
X85908828Y-40919918D01*
X85889048Y-40988096D01*
X85889045Y-40988108D01*
X85880909Y-41046023D01*
X85880908Y-41046040D01*
X85887672Y-43141018D01*
X85887672Y-43141027D01*
X85887673Y-43141028D01*
X85892439Y-43184369D01*
X85903100Y-43233000D01*
X85903825Y-43236307D01*
X85906241Y-43246160D01*
X85906243Y-43246166D01*
X85949249Y-43326872D01*
X85949252Y-43326876D01*
X85992576Y-43376876D01*
X85995743Y-43380530D01*
X86013336Y-43398485D01*
X86093154Y-43443132D01*
X86161275Y-43463134D01*
X86180573Y-43465908D01*
X86219167Y-43471458D01*
X86219171Y-43471458D01*
X86467052Y-43471458D01*
X86525243Y-43490365D01*
X86561207Y-43539865D01*
X86566050Y-43570950D01*
X86539466Y-48887812D01*
X86538714Y-49038306D01*
X86543298Y-49082507D01*
X86543299Y-49082514D01*
X86554678Y-49135463D01*
X86557279Y-49146161D01*
X86585589Y-49199290D01*
X86600287Y-49226872D01*
X86600290Y-49226876D01*
X86646778Y-49280527D01*
X86659795Y-49293812D01*
X86664374Y-49298485D01*
X86744192Y-49343132D01*
X86812313Y-49363134D01*
X86831611Y-49365908D01*
X86870205Y-49371458D01*
X86870209Y-49371458D01*
X87817573Y-49371458D01*
X87817578Y-49371458D01*
X87861259Y-49366762D01*
X87913601Y-49355376D01*
X87923781Y-49352888D01*
X88004494Y-49309879D01*
X88058150Y-49263386D01*
X88076105Y-49245793D01*
X88120752Y-49165975D01*
X88140754Y-49097854D01*
X88144321Y-49073041D01*
X88149078Y-49039962D01*
X88149078Y-43415647D01*
X88167985Y-43357456D01*
X88217485Y-43321492D01*
X88278671Y-43321492D01*
X88328171Y-43357456D01*
X88330395Y-43360649D01*
X88334989Y-43367526D01*
X88334995Y-43367534D01*
X88360543Y-43398662D01*
X88360546Y-43398665D01*
X88360551Y-43398671D01*
X88387864Y-43425984D01*
X88387869Y-43425988D01*
X88387872Y-43425991D01*
X88419001Y-43451539D01*
X88467357Y-43483850D01*
X88467359Y-43483851D01*
X88467362Y-43483853D01*
X88484720Y-43493131D01*
X88502890Y-43502843D01*
X88502892Y-43502843D01*
X88538573Y-43517624D01*
X88577127Y-43529320D01*
X88621553Y-43538157D01*
X88643924Y-43542607D01*
X88663876Y-43545567D01*
X88683190Y-43547469D01*
X88703330Y-43548458D01*
X89189078Y-43548458D01*
X89247269Y-43567365D01*
X89283233Y-43616865D01*
X89288078Y-43647458D01*
X89288078Y-50375432D01*
X89288079Y-50376314D01*
X89288084Y-50377222D01*
X89288085Y-50377368D01*
X89288092Y-50378411D01*
X89289488Y-50528020D01*
X89297895Y-51429338D01*
X89279531Y-51487702D01*
X89234324Y-51522706D01*
X89163230Y-51549949D01*
X89103961Y-51589042D01*
X89083868Y-51604136D01*
X89083867Y-51604137D01*
X89029182Y-51677446D01*
X89000462Y-51742367D01*
X88984650Y-51798687D01*
X88979996Y-51834033D01*
X88976180Y-51849919D01*
X88976518Y-51850022D01*
X88964118Y-51890897D01*
X88954526Y-51939118D01*
X88951009Y-51974827D01*
X88950578Y-51979207D01*
X88950578Y-54979707D01*
X88951215Y-54986176D01*
X88954526Y-55019795D01*
X88964117Y-55068012D01*
X88976517Y-55108891D01*
X88976170Y-55108996D01*
X88979996Y-55124886D01*
X88990284Y-55203036D01*
X88990284Y-55228878D01*
X88979996Y-55307029D01*
X88976180Y-55322919D01*
X88976518Y-55323022D01*
X88964118Y-55363897D01*
X88954526Y-55412118D01*
X88950578Y-55452208D01*
X88950578Y-55811458D01*
X88931671Y-55869649D01*
X88882171Y-55905613D01*
X88851578Y-55910458D01*
X87632074Y-55910458D01*
X87629797Y-55910580D01*
X87570678Y-55894813D01*
X87532117Y-55847309D01*
X87525500Y-55811722D01*
X87525500Y-55798500D01*
X87544407Y-55740309D01*
X87593907Y-55704345D01*
X87624500Y-55699500D01*
X87728993Y-55699500D01*
X87729000Y-55699500D01*
X87761144Y-55696970D01*
X87791737Y-55692125D01*
X87791748Y-55692123D01*
X87791793Y-55692116D01*
X87796281Y-55691353D01*
X87796280Y-55691353D01*
X87796287Y-55691352D01*
X87880383Y-55655408D01*
X87929883Y-55619444D01*
X87957628Y-55595203D01*
X88004536Y-55516693D01*
X88023443Y-55458502D01*
X88027465Y-55433101D01*
X88033500Y-55395003D01*
X88033500Y-54986604D01*
X88033501Y-54986176D01*
X88039999Y-53483429D01*
X88039999Y-53483422D01*
X88038141Y-53463909D01*
X88036139Y-53442882D01*
X88034392Y-53434000D01*
X88032372Y-53423726D01*
X88028605Y-53404570D01*
X88016825Y-53365583D01*
X88013728Y-53358108D01*
X88007042Y-53333151D01*
X87996869Y-53255871D01*
X87996869Y-53230043D01*
X88007042Y-53152760D01*
X88013733Y-53127795D01*
X88018914Y-53115288D01*
X88030520Y-53077180D01*
X88030522Y-53077171D01*
X88034504Y-53057375D01*
X88038057Y-53039715D01*
X88042091Y-53000077D01*
X88048962Y-51411447D01*
X88055304Y-49945233D01*
X88055303Y-49945200D01*
X88052845Y-49912626D01*
X88052845Y-49912624D01*
X88048001Y-49881603D01*
X88047159Y-49876614D01*
X88011215Y-49792518D01*
X87975251Y-49743018D01*
X87951010Y-49715273D01*
X87872500Y-49668365D01*
X87872498Y-49668364D01*
X87872496Y-49668363D01*
X87814306Y-49649457D01*
X87814307Y-49649457D01*
X87750810Y-49639401D01*
X87750807Y-49639401D01*
X86999061Y-49639401D01*
X86999057Y-49639401D01*
X86967102Y-49641900D01*
X86936669Y-49646692D01*
X86932302Y-49647429D01*
X86932299Y-49647429D01*
X86932298Y-49647430D01*
X86932296Y-49647430D01*
X86932295Y-49647431D01*
X86848140Y-49683224D01*
X86798567Y-49719108D01*
X86798558Y-49719115D01*
X86770790Y-49743290D01*
X86723741Y-49821720D01*
X86704732Y-49879872D01*
X86694561Y-49943355D01*
X86694561Y-49943356D01*
X86685761Y-54923889D01*
X86666751Y-54982046D01*
X86617187Y-55017923D01*
X86567519Y-55020826D01*
X86557213Y-55018784D01*
X86557200Y-55018782D01*
X86544485Y-55016262D01*
X86524609Y-55013326D01*
X86505373Y-55011439D01*
X86485323Y-55010458D01*
X86485312Y-55010458D01*
X85248078Y-55010458D01*
X85189887Y-54991551D01*
X85153923Y-54942051D01*
X85149078Y-54911458D01*
X85149078Y-51875726D01*
X85149078Y-51875709D01*
X85148089Y-51855570D01*
X85146187Y-51836255D01*
X85145857Y-51834033D01*
X85145184Y-51829496D01*
X85143227Y-51816301D01*
X85129940Y-51749506D01*
X85118244Y-51710953D01*
X85103461Y-51675266D01*
X85084473Y-51639742D01*
X85052161Y-51591384D01*
X85052159Y-51591381D01*
X85052159Y-51591380D01*
X85026611Y-51560252D01*
X85026608Y-51560249D01*
X85026604Y-51560244D01*
X84999291Y-51532931D01*
X84999285Y-51532926D01*
X84999282Y-51532923D01*
X84968153Y-51507375D01*
X84919793Y-51475061D01*
X84884276Y-51456077D01*
X84884256Y-51456068D01*
X84848580Y-51441290D01*
X84838545Y-51438246D01*
X84810024Y-51429594D01*
X84810014Y-51429592D01*
X84810010Y-51429591D01*
X84743233Y-51416308D01*
X84723301Y-51413351D01*
X84723267Y-51413347D01*
X84703973Y-51411447D01*
X84692981Y-51410907D01*
X84683826Y-51410458D01*
X84683821Y-51410458D01*
X83696050Y-51410458D01*
X83637859Y-51391551D01*
X83601895Y-51342051D01*
X83597052Y-51312119D01*
X83596566Y-51239332D01*
X83591795Y-50525161D01*
X83590681Y-50505115D01*
X83588667Y-50485897D01*
X83586237Y-50470176D01*
X83585077Y-50455059D01*
X83585077Y-50394290D01*
X83585077Y-50394286D01*
X83574869Y-50324214D01*
X83522027Y-50216125D01*
X83436953Y-50131051D01*
X83436951Y-50131050D01*
X83436950Y-50131049D01*
X83409114Y-50117441D01*
X83365140Y-50074898D01*
X83354570Y-50014632D01*
X83381442Y-49959664D01*
X83409114Y-49939559D01*
X83417793Y-49935315D01*
X83436953Y-49925949D01*
X83522027Y-49840875D01*
X83574869Y-49732786D01*
X83585078Y-49662715D01*
X83585077Y-49588344D01*
X83586157Y-49573759D01*
X83587167Y-49566980D01*
X83589082Y-49547601D01*
X83590078Y-49527392D01*
X83590078Y-49333251D01*
X83589089Y-49313112D01*
X83587187Y-49293797D01*
X83586149Y-49286800D01*
X83585077Y-49272270D01*
X83585077Y-49199290D01*
X83585077Y-49199286D01*
X83574869Y-49129214D01*
X83522027Y-49021125D01*
X83436953Y-48936051D01*
X83436951Y-48936050D01*
X83436950Y-48936049D01*
X83380553Y-48908478D01*
X83328864Y-48883209D01*
X83258793Y-48873000D01*
X83258790Y-48873000D01*
X83185802Y-48873000D01*
X83171278Y-48871929D01*
X83164274Y-48870890D01*
X83144973Y-48868989D01*
X83133981Y-48868449D01*
X83124826Y-48868000D01*
X83124821Y-48868000D01*
X82547050Y-48868000D01*
X82488859Y-48849093D01*
X82452895Y-48799593D01*
X82448052Y-48769661D01*
X82447891Y-48745484D01*
X82432592Y-46455010D01*
X82432598Y-46453197D01*
X82470040Y-43532736D01*
X82470049Y-43531858D01*
X82470051Y-43531622D01*
X82470059Y-43530795D01*
X82470065Y-43530021D01*
X82470066Y-43529873D01*
X82470068Y-43529606D01*
X82470068Y-43529510D01*
X82470072Y-43528915D01*
X82470076Y-43527909D01*
X82470076Y-43527544D01*
X82470077Y-43527130D01*
X82470078Y-43526535D01*
X82470078Y-43233000D01*
X82488985Y-43174809D01*
X82538485Y-43138845D01*
X82569078Y-43134000D01*
X83558311Y-43134000D01*
X83568012Y-43134476D01*
X83568248Y-43134499D01*
X83568252Y-43134500D01*
X83568256Y-43134500D01*
X85307747Y-43134500D01*
X85307748Y-43134500D01*
X85366231Y-43122867D01*
X85432552Y-43078552D01*
X85476867Y-43012231D01*
X85488500Y-42953748D01*
X85488500Y-42953732D01*
X85488797Y-42950722D01*
X85504463Y-42906953D01*
X85504219Y-42906807D01*
X85504954Y-42905578D01*
X85505023Y-42905388D01*
X85505473Y-42904715D01*
X85524461Y-42869191D01*
X85539244Y-42833504D01*
X85550940Y-42794951D01*
X85564227Y-42728156D01*
X85567187Y-42708202D01*
X85569089Y-42688887D01*
X85570078Y-42668748D01*
X85570078Y-41388251D01*
X85569089Y-41368112D01*
X85567187Y-41348797D01*
X85564227Y-41328843D01*
X85550940Y-41262048D01*
X85539244Y-41223495D01*
X85524461Y-41187808D01*
X85505473Y-41152284D01*
X85493748Y-41134737D01*
X85473159Y-41103923D01*
X85473159Y-41103922D01*
X85447611Y-41072794D01*
X85447608Y-41072791D01*
X85447604Y-41072786D01*
X85420291Y-41045473D01*
X85420285Y-41045468D01*
X85420282Y-41045465D01*
X85389153Y-41019917D01*
X85340793Y-40987603D01*
X85305276Y-40968619D01*
X85305256Y-40968610D01*
X85269580Y-40953832D01*
X85259545Y-40950788D01*
X85231024Y-40942136D01*
X85231014Y-40942134D01*
X85231010Y-40942133D01*
X85164233Y-40928850D01*
X85144301Y-40925893D01*
X85144267Y-40925889D01*
X85124973Y-40923989D01*
X85113981Y-40923449D01*
X85104826Y-40923000D01*
X83724330Y-40923000D01*
X83717006Y-40923359D01*
X83704182Y-40923989D01*
X83704181Y-40923989D01*
X83684875Y-40925890D01*
X83684872Y-40925891D01*
X83664924Y-40928850D01*
X83633196Y-40935160D01*
X83633197Y-40935161D01*
X83598121Y-40942137D01*
X83559591Y-40953825D01*
X83559575Y-40953831D01*
X83523888Y-40968613D01*
X83488373Y-40987597D01*
X83488366Y-40987601D01*
X83444540Y-41016882D01*
X83444459Y-41016939D01*
X83439982Y-41019930D01*
X83408863Y-41045473D01*
X83408851Y-41045484D01*
X83381555Y-41072781D01*
X83381543Y-41072794D01*
X83355995Y-41103922D01*
X83355995Y-41103923D01*
X83323681Y-41152283D01*
X83304697Y-41187800D01*
X83304688Y-41187820D01*
X83289910Y-41223496D01*
X83282540Y-41247792D01*
X83278221Y-41262032D01*
X83278214Y-41262054D01*
X83278211Y-41262066D01*
X83264928Y-41328843D01*
X83261971Y-41348775D01*
X83261967Y-41348809D01*
X83260067Y-41368102D01*
X83260067Y-41368103D01*
X83259078Y-41388255D01*
X83259078Y-41724000D01*
X83240171Y-41782191D01*
X83190671Y-41818155D01*
X83160078Y-41823000D01*
X81423573Y-41823000D01*
X81403513Y-41823984D01*
X81403489Y-41823986D01*
X81384253Y-41825876D01*
X81364324Y-41828826D01*
X81364315Y-41828827D01*
X81297611Y-41842071D01*
X81259127Y-41853723D01*
X81259124Y-41853724D01*
X81223509Y-41868448D01*
X81188018Y-41887378D01*
X81139706Y-41919586D01*
X81108598Y-41945051D01*
X81081310Y-41972261D01*
X81081298Y-41972274D01*
X81055735Y-42003321D01*
X81055732Y-42003324D01*
X81055729Y-42003329D01*
X81023384Y-42051553D01*
X81004362Y-42086975D01*
X80989538Y-42122548D01*
X80989536Y-42122553D01*
X80989534Y-42122559D01*
X80981594Y-42148519D01*
X80977772Y-42161015D01*
X80977769Y-42161026D01*
X80964346Y-42227655D01*
X80964343Y-42227672D01*
X80961341Y-42247554D01*
X80961337Y-42247583D01*
X80959390Y-42266825D01*
X80958347Y-42286925D01*
X80956596Y-42906807D01*
X80946582Y-46451909D01*
X80946581Y-46452277D01*
X80946580Y-46453247D01*
X80946581Y-46453983D01*
X80946582Y-46454527D01*
X80946583Y-46454785D01*
X80946583Y-46455185D01*
X80946585Y-46455519D01*
X80946585Y-46455592D01*
X80946586Y-46455592D01*
X80948550Y-46828933D01*
X80957470Y-48523479D01*
X80938869Y-48581768D01*
X80889559Y-48617992D01*
X80858471Y-48623000D01*
X78124330Y-48623000D01*
X78117006Y-48623359D01*
X78104182Y-48623989D01*
X78104181Y-48623989D01*
X78084875Y-48625890D01*
X78084872Y-48625891D01*
X78064924Y-48628850D01*
X78033196Y-48635160D01*
X78033197Y-48635161D01*
X77998121Y-48642137D01*
X77959591Y-48653825D01*
X77959575Y-48653831D01*
X77923888Y-48668613D01*
X77888373Y-48687597D01*
X77888366Y-48687601D01*
X77844540Y-48716882D01*
X77844459Y-48716939D01*
X77839982Y-48719930D01*
X77808863Y-48745473D01*
X77808851Y-48745484D01*
X77781555Y-48772781D01*
X77781543Y-48772794D01*
X77755995Y-48803922D01*
X77755995Y-48803923D01*
X77723681Y-48852283D01*
X77704697Y-48887800D01*
X77704688Y-48887820D01*
X77689910Y-48923496D01*
X77678214Y-48962054D01*
X77678211Y-48962066D01*
X77664928Y-49028843D01*
X77661971Y-49048775D01*
X77661967Y-49048809D01*
X77660067Y-49068102D01*
X77660067Y-49068103D01*
X77659078Y-49088255D01*
X77659078Y-49772795D01*
X77659077Y-49773169D01*
X77653760Y-51182252D01*
X77640061Y-54811996D01*
X77640982Y-54832228D01*
X77642816Y-54851551D01*
X77645717Y-54871578D01*
X77658812Y-54938569D01*
X77665054Y-54959372D01*
X77670417Y-54977247D01*
X77681219Y-55003535D01*
X77685130Y-55013054D01*
X77685131Y-55013058D01*
X77693841Y-55029455D01*
X77704076Y-55048723D01*
X77736349Y-55097270D01*
X77761898Y-55128537D01*
X77789223Y-55155966D01*
X77812353Y-55175013D01*
X77820395Y-55181635D01*
X77868817Y-55214089D01*
X77868820Y-55214091D01*
X77868825Y-55214094D01*
X77890767Y-55225856D01*
X77904404Y-55233166D01*
X77904408Y-55233167D01*
X77904412Y-55233170D01*
X77904417Y-55233172D01*
X77904419Y-55233173D01*
X77940160Y-55248018D01*
X77940162Y-55248018D01*
X77940168Y-55248021D01*
X77978807Y-55259773D01*
X78045754Y-55273122D01*
X78065751Y-55276095D01*
X78065761Y-55276096D01*
X78065758Y-55276096D01*
X78085100Y-55278005D01*
X78085104Y-55278005D01*
X78085110Y-55278006D01*
X78105298Y-55279000D01*
X78105303Y-55279000D01*
X78652789Y-55279000D01*
X78652835Y-55279000D01*
X78653487Y-55278999D01*
X78653802Y-55278998D01*
X78653804Y-55278998D01*
X78655060Y-55278994D01*
X78655601Y-55278992D01*
X78655768Y-55278991D01*
X78655777Y-55278991D01*
X78655982Y-55278990D01*
X78656010Y-55278989D01*
X78656065Y-55278989D01*
X78656130Y-55278989D01*
X78660920Y-55278961D01*
X78661324Y-55278933D01*
X78766987Y-55277687D01*
X78988668Y-55275070D01*
X79047076Y-55293289D01*
X79083622Y-55342361D01*
X79088715Y-55369198D01*
X79089065Y-55376327D01*
X79089067Y-55376354D01*
X79090967Y-55395647D01*
X79090971Y-55395681D01*
X79093928Y-55415613D01*
X79107211Y-55482390D01*
X79107214Y-55482404D01*
X79111242Y-55495681D01*
X79118910Y-55520960D01*
X79133688Y-55556636D01*
X79133697Y-55556656D01*
X79152681Y-55592173D01*
X79184995Y-55640533D01*
X79184995Y-55640534D01*
X79210543Y-55671662D01*
X79210546Y-55671665D01*
X79210551Y-55671671D01*
X79237864Y-55698984D01*
X79237869Y-55698988D01*
X79237872Y-55698991D01*
X79269001Y-55724539D01*
X79317357Y-55756850D01*
X79317359Y-55756851D01*
X79317362Y-55756853D01*
X79352886Y-55775841D01*
X79352890Y-55775843D01*
X79352892Y-55775843D01*
X79388573Y-55790624D01*
X79427127Y-55802320D01*
X79471553Y-55811157D01*
X79493924Y-55815607D01*
X79513876Y-55818567D01*
X79533190Y-55820469D01*
X79553330Y-55821458D01*
X81342180Y-55821458D01*
X81400371Y-55840365D01*
X81436335Y-55889865D01*
X81441175Y-55919445D01*
X81447359Y-56523486D01*
X81453996Y-57171818D01*
X81455176Y-57191779D01*
X81455177Y-57191783D01*
X81457251Y-57210957D01*
X81457252Y-57210963D01*
X81460373Y-57230742D01*
X81468295Y-57268781D01*
X81474172Y-57297000D01*
X81474177Y-57297016D01*
X81486104Y-57335189D01*
X81486107Y-57335196D01*
X81486108Y-57335199D01*
X81492959Y-57351386D01*
X81501066Y-57370541D01*
X81501071Y-57370551D01*
X81519821Y-57405043D01*
X81520181Y-57405705D01*
X81550702Y-57450756D01*
X81550708Y-57450764D01*
X81552616Y-57453580D01*
X81578160Y-57484338D01*
X81578175Y-57484354D01*
X81605436Y-57511338D01*
X81605443Y-57511344D01*
X81636492Y-57536593D01*
X81684669Y-57568518D01*
X81720024Y-57587272D01*
X81755521Y-57601870D01*
X81793849Y-57613417D01*
X81847226Y-57623963D01*
X81880470Y-57627754D01*
X81912580Y-57628784D01*
X81912580Y-57628783D01*
X81912582Y-57628784D01*
X81945978Y-57627133D01*
X81945982Y-57627132D01*
X81945990Y-57627132D01*
X82025286Y-57616693D01*
X82051127Y-57616693D01*
X82070640Y-57619261D01*
X82149946Y-57629703D01*
X82149955Y-57629703D01*
X82149956Y-57629704D01*
X82163338Y-57631022D01*
X82176260Y-57631869D01*
X82189701Y-57632309D01*
X83989890Y-57632309D01*
X84048081Y-57651216D01*
X84084045Y-57700716D01*
X84088876Y-57732994D01*
X84080103Y-58248340D01*
X84080103Y-58248367D01*
X84080767Y-58268741D01*
X84082379Y-58288285D01*
X84082383Y-58288320D01*
X84085057Y-58308475D01*
X84085061Y-58308504D01*
X84091109Y-58341462D01*
X84083014Y-58402110D01*
X84040817Y-58446417D01*
X83993735Y-58458329D01*
X83551185Y-58458329D01*
X83524368Y-58460086D01*
X83524342Y-58460089D01*
X83519818Y-58460685D01*
X83508741Y-58461515D01*
X83506460Y-58461557D01*
X83501665Y-58462188D01*
X83498275Y-58462634D01*
X83498270Y-58462634D01*
X83496316Y-58462892D01*
X83496301Y-58462893D01*
X83496302Y-58462894D01*
X83381238Y-58478042D01*
X83355395Y-58478042D01*
X83243484Y-58463309D01*
X83243477Y-58463309D01*
X83240308Y-58462892D01*
X83240302Y-58462891D01*
X83238359Y-58462635D01*
X83235800Y-58462298D01*
X83210799Y-58459007D01*
X83207702Y-58459787D01*
X83185452Y-58458329D01*
X83185447Y-58458329D01*
X80173566Y-58458329D01*
X80140108Y-58461926D01*
X80129884Y-58463025D01*
X80128579Y-58463309D01*
X80077543Y-58474411D01*
X80077520Y-58474416D01*
X80077509Y-58474419D01*
X80061348Y-58478369D01*
X80060832Y-58476260D01*
X80009176Y-58478864D01*
X79960170Y-58448119D01*
X79958695Y-58446417D01*
X79939494Y-58424257D01*
X79921901Y-58406302D01*
X79842083Y-58361655D01*
X79808857Y-58351899D01*
X79773959Y-58341652D01*
X79716070Y-58333329D01*
X79716066Y-58333329D01*
X71008282Y-58333329D01*
X70966443Y-58324053D01*
X70930836Y-58307449D01*
X70872804Y-58280388D01*
X70731300Y-58242472D01*
X70660757Y-58223570D01*
X70660756Y-58223569D01*
X70660749Y-58223568D01*
X70442069Y-58204437D01*
X70442063Y-58204437D01*
X70223382Y-58223568D01*
X70011327Y-58280388D01*
X69951096Y-58308475D01*
X69917688Y-58324053D01*
X69875850Y-58333329D01*
X69368066Y-58333329D01*
X69331665Y-58337242D01*
X69324384Y-58338025D01*
X69311902Y-58340740D01*
X69272043Y-58349411D01*
X69266726Y-58350710D01*
X69261861Y-58351899D01*
X69181151Y-58394907D01*
X69181147Y-58394910D01*
X69127496Y-58441398D01*
X69109540Y-58458992D01*
X69064892Y-58538811D01*
X69044889Y-58606935D01*
X69036566Y-58664824D01*
X66398000Y-58664824D01*
X66398000Y-43942711D01*
X66416907Y-43884520D01*
X66466407Y-43848556D01*
X66527593Y-43848556D01*
X66577093Y-43884520D01*
X66591841Y-43914318D01*
X66620738Y-44010841D01*
X66756869Y-44326426D01*
X66928716Y-44624074D01*
X67133956Y-44899759D01*
X67369813Y-45149753D01*
X67633098Y-45370675D01*
X67920250Y-45559538D01*
X68227386Y-45713788D01*
X68550353Y-45831338D01*
X68550356Y-45831338D01*
X68550357Y-45831339D01*
X68884772Y-45910597D01*
X68884777Y-45910597D01*
X68884783Y-45910599D01*
X69226153Y-45950500D01*
X69226157Y-45950500D01*
X69569843Y-45950500D01*
X69569847Y-45950500D01*
X69911217Y-45910599D01*
X69911223Y-45910597D01*
X69911227Y-45910597D01*
X70134170Y-45857758D01*
X70245647Y-45831338D01*
X70568614Y-45713788D01*
X70875750Y-45559538D01*
X71162902Y-45370675D01*
X71426187Y-45149753D01*
X71662044Y-44899759D01*
X71867284Y-44624074D01*
X72039131Y-44326426D01*
X72175262Y-44010841D01*
X72273834Y-43681585D01*
X72333516Y-43343113D01*
X72353500Y-43000000D01*
X72333516Y-42656887D01*
X72273834Y-42318415D01*
X72175262Y-41989159D01*
X72039131Y-41673574D01*
X71867284Y-41375926D01*
X71662044Y-41100241D01*
X71426187Y-40850247D01*
X71413926Y-40839959D01*
X71313714Y-40755871D01*
X71162902Y-40629325D01*
X71069826Y-40568108D01*
X70875751Y-40440462D01*
X70568616Y-40286213D01*
X70568615Y-40286212D01*
X70568614Y-40286212D01*
X70309847Y-40192029D01*
X70261634Y-40154360D01*
X70244769Y-40095545D01*
X70265696Y-40038050D01*
X70316421Y-40003835D01*
X70343709Y-40000000D01*
X107852291Y-40000000D01*
X107910482Y-40018907D01*
G37*
G04 #@! TD.AperFunction*
M02*
